<?xml version="1.0" encoding="UTF-8" standalone="no"?><!-- Generator: Gravit.io --><svg xmlns="http://www.w3.org/2000/svg" xmlns:xlink="http://www.w3.org/1999/xlink" style="isolation:isolate" viewBox="0 0 892 500.75" width="892pt" height="500.75pt"><defs><clipPath id="_clipPath_qAfDIFkGa54zQ8mxC5tnvc70d16CR261"><rect width="892" height="500.75"/></clipPath></defs><g clip-path="url(#_clipPath_qAfDIFkGa54zQ8mxC5tnvc70d16CR261)"><path d=" M 654.047 351.25 C 560.1 311.436 475.105 312.949 395.047 337.25 C 271.695 315.707 187.228 319.04 133.047 351.25 L 133.047 251.25 L 654.047 251.25 L 654.047 351.25 Z " fill="rgb(203,203,203)"/><path d=" M 654.047 323.75 C 567.495 284.533 481.048 282.001 393.297 323.75 C 303.419 297.872 216.533 298.143 132.547 323.75 L 132.547 19.75 C 221.841 -6.901 308.701 -6.261 393.297 19.75 C 482.659 -6.171 569.653 -6.993 654.047 19.75 L 654.047 323.75 Z " fill="rgb(229,229,229)"/><path d=" M 156.002 57.476 L 153.091 50.024 C 154.232 49.579 181.499 39.038 221.515 33.661 C 258.511 28.688 313.63 27.501 366.127 50.075 L 362.967 57.425 C 312.226 35.606 258.736 36.755 222.798 41.56 C 183.681 46.791 156.275 57.37 156.002 57.476 Z " fill="rgb(255,255,255)"/><path d=" M 156.002 85.476 L 153.091 78.024 C 154.232 77.579 181.499 67.038 221.515 61.661 C 258.511 56.689 313.63 55.502 366.127 78.075 L 362.967 85.425 C 312.226 63.606 258.736 64.754 222.798 69.56 C 183.681 74.791 156.275 85.37 156.002 85.476 Z " fill="rgb(255,255,255)"/><path d=" M 156.002 113.476 L 153.091 106.024 C 154.232 105.579 181.499 95.038 221.515 89.661 C 258.511 84.688 313.63 83.501 366.127 106.075 L 362.967 113.425 C 312.226 91.606 258.736 92.754 222.798 97.56 C 183.681 102.791 156.275 113.37 156.002 113.476 Z " fill="rgb(255,255,255)"/><path d=" M 156.002 141.476 L 153.091 134.024 C 154.232 133.579 181.499 123.038 221.515 117.661 C 258.511 112.689 313.63 111.501 366.127 134.075 L 362.967 141.425 C 312.226 119.606 258.736 120.755 222.798 125.56 C 183.681 130.791 156.275 141.37 156.002 141.476 Z " fill="rgb(255,255,255)"/><path d=" M 156.002 169.476 L 153.091 162.024 C 154.232 161.579 181.499 151.038 221.515 145.661 C 258.511 140.688 313.63 139.501 366.127 162.075 L 362.967 169.425 C 312.226 147.606 258.736 148.755 222.798 153.56 C 183.681 158.791 156.275 169.37 156.002 169.476 Z " fill="rgb(255,255,255)"/><path d=" M 156.002 197.476 L 153.091 190.024 C 154.232 189.579 181.499 179.038 221.515 173.661 C 258.511 168.689 313.63 167.501 366.127 190.075 L 362.967 197.425 C 312.226 175.606 258.736 176.755 222.798 181.56 C 183.681 186.791 156.275 197.37 156.002 197.476 Z " fill="rgb(255,255,255)"/><path d=" M 417.002 256.476 L 414.091 249.024 C 415.232 248.579 442.499 238.038 482.515 232.661 C 519.511 227.689 574.63 226.501 627.127 249.075 L 623.967 256.425 C 573.226 234.606 519.736 235.755 483.798 240.56 C 444.681 245.791 417.275 256.37 417.002 256.476 Z " fill="rgb(0,0,0)"/><path d=" M 414.547 202.739 L 414.547 49.809 L 417.355 48.932 C 488.498 26.709 559.296 26.713 627.782 48.945 L 630.547 49.843 L 630.547 202.535 L 625.135 200.492 C 553.865 173.594 484.875 173.578 420.079 200.445 L 414.547 202.739 Z  M 520.11 172.289 Q 570.338 172.289 622.547 191.014 L 622.547 55.67 C 557.433 35.135 490.17 35.146 422.547 55.703 L 422.547 190.828 C 453.619 178.587 486.715 172.298 520.11 172.289 Z " fill="rgb(255,255,255)"/><path d=" M 627.226 248.237 L 623.256 251.434 L 623.589 243.005 C 624.952 243.478 626.428 245.53 627.226 248.237 Z " fill="rgb(63,61,86)"/><rect x="392.297" y="19.75" width="2" height="303.038" transform="matrix(1,0,0,1,0,0)" fill="rgb(203,203,203)"/></g></svg>