<?xml version="1.0" encoding="UTF-8" standalone="no"?><!-- Generator: Gravit.io --><svg xmlns="http://www.w3.org/2000/svg" xmlns:xlink="http://www.w3.org/1999/xlink" style="isolation:isolate" viewBox="0 0 700 700" width="700pt" height="700pt"><defs><clipPath id="_clipPath_ZeenW0rQHrb16uWrOaJ3nJbpH1WRdh7C"><rect width="700" height="700"/></clipPath></defs><g clip-path="url(#_clipPath_ZeenW0rQHrb16uWrOaJ3nJbpH1WRdh7C)"><path d=" M 294.632 551.892 L 296.231 302.979 C 296.252 300.23 298.502 298.016 301.263 298.031 L 348.362 298.333 L 348.349 300.325 L 301.25 300.023 C 299.594 300.014 298.243 301.342 298.231 302.992 L 296.632 551.905 C 296.623 553.554 297.957 554.9 299.613 554.912 L 347.041 555.217 L 347.028 557.209 L 299.6 556.904 C 296.84 556.884 294.618 554.641 294.632 551.892 L 294.632 551.892 Z " fill="rgb(63,61,86)"/><rect x="55.565" y="349" width="584.929" height="2" transform="matrix(-0.006,1,-1,-0.006,700.258,4.225)" fill="rgb(63,61,86)"/><path d=" M 349.056 27.731 C 358.55 27.792 366.208 35.519 366.147 44.976 C 366.087 54.432 358.33 62.061 348.836 62 C 339.342 61.939 331.683 54.211 331.744 44.755 C 331.805 35.298 339.562 27.67 349.056 27.731 Z " fill="rgb(4,4,4)"/><path d=" M 349.056 214.57 C 358.55 214.631 366.208 222.358 366.147 231.815 C 366.087 241.272 358.33 248.9 348.836 248.839 C 339.342 248.778 331.683 241.051 331.744 231.594 C 331.805 222.137 339.562 214.509 349.056 214.57 Z " fill="rgb(4,4,4)"/><path d=" M 297.737 332.412 C 307.231 332.473 314.889 340.2 314.829 349.657 C 314.768 359.114 307.011 366.742 297.517 366.681 C 288.023 366.62 280.365 358.893 280.425 349.436 C 280.486 339.979 288.243 332.351 297.737 332.412 Z " fill="rgb(63,61,86)"/><path d=" M 297.16 422.245 C 306.654 422.306 314.312 430.033 314.252 439.49 C 314.191 448.947 306.434 456.575 296.94 456.514 C 287.446 456.453 279.788 448.726 279.848 439.269 C 279.909 429.812 287.666 422.184 297.16 422.245 Z " fill="rgb(204,204,204)"/><path d=" M 348 379.038 C 357.493 379.099 365.152 386.826 365.091 396.283 C 365.03 405.74 357.273 413.368 347.779 413.307 C 338.286 413.246 330.627 405.519 330.688 396.062 C 330.749 386.605 338.506 378.977 348 379.038 Z " fill="rgb(4,4,4)"/><circle vector-effect="non-scaling-stroke" cx="956.2594" cy="158.196" r="17.201999999999998" fill="rgb(4,4,4)"/><path d=" M 346.972 539.077 C 356.466 539.138 364.124 546.865 364.063 556.322 C 364.003 565.779 356.246 573.407 346.752 573.346 C 337.258 573.285 329.599 565.558 329.66 556.101 C 329.721 546.644 337.478 539.016 346.972 539.077 Z " fill="rgb(4,4,4)"/><path d=" M 348.567 110.711 C 348.57 110.161 349.021 109.718 349.573 109.721 L 398.934 110.038 C 401.694 110.059 403.917 112.301 403.902 115.051 L 403.591 163.535 C 403.587 164.085 403.137 164.528 402.584 164.524 C 402.032 164.521 401.587 164.072 401.591 163.522 L 401.902 115.038 C 401.911 113.388 400.578 112.043 398.921 112.03 L 349.56 111.713 C 349.008 111.71 348.563 111.261 348.567 110.711 L 348.567 110.711 Z " fill="rgb(63,61,86)"/><path d=" M 403.06 148.675 C 412.554 148.735 420.212 156.463 420.152 165.92 C 420.091 175.376 412.334 183.005 402.84 182.944 C 393.346 182.883 385.688 175.155 385.748 165.699 C 385.809 156.242 393.566 148.614 403.06 148.675 Z " fill="rgb(230,230,230)"/><path d=" M 347.104 494.208 L 347.117 492.215 L 396.478 492.532 C 399.238 492.553 401.46 494.796 401.446 497.545 L 401.134 546.029 L 399.134 546.016 L 399.446 497.532 C 399.455 495.882 398.121 494.537 396.465 494.525 L 347.104 494.208 Z " fill="rgb(63,61,86)"/><path d=" M 400.604 531.169 C 410.098 531.23 417.756 538.957 417.695 548.414 C 417.635 557.871 409.877 565.499 400.384 565.438 C 390.89 565.377 383.231 557.65 383.292 548.193 C 383.353 538.736 391.11 531.108 400.604 531.169 Z " fill="rgb(230,230,230)"/><path d=" M 345.262 642.465 C 354.756 642.526 362.414 650.254 362.353 659.711 C 362.293 669.167 354.536 676.796 345.042 676.735 C 335.548 676.674 327.889 668.946 327.95 659.49 C 328.011 650.033 335.768 642.405 345.262 642.465 Z " fill="rgb(230,230,230)"/></g></svg>