<?xml version="1.0" encoding="UTF-8" standalone="no"?><!-- Generator: Gravit.io --><svg xmlns="http://www.w3.org/2000/svg" xmlns:xlink="http://www.w3.org/1999/xlink" style="isolation:isolate" viewBox="0 0 667.898 531.394" width="667.898pt" height="531.394pt"><defs><clipPath id="_clipPath_b7pU36wBBDeubl5XTdMiMmoHpjQgnYRK"><rect width="667.898" height="531.394"/></clipPath></defs><g clip-path="url(#_clipPath_b7pU36wBBDeubl5XTdMiMmoHpjQgnYRK)"><clipPath id="_clipPath_xV3Gpus4MXRnhlCA7FxbT2dRQpae35mv"><rect x="0" y="0" width="667.898" height="531.394" transform="matrix(1,0,0,1,0,0)" fill="rgb(255,255,255)"/></clipPath><g clip-path="url(#_clipPath_xV3Gpus4MXRnhlCA7FxbT2dRQpae35mv)"><g><path d=" M 62.898 405.414 L 62.898 69.494 C 62.898 63.407 67.85 58.454 73.938 58.454 L 618.858 58.454 C 624.946 58.454 629.898 63.407 629.898 69.494 L 629.898 405.414 C 629.898 411.502 624.946 416.454 618.858 416.454 L 73.938 416.454 C 67.85 416.454 62.898 411.502 62.898 405.414 Z  M 627.898 69.494 C 627.898 64.502 623.851 60.454 618.858 60.454 L 73.938 60.454 C 68.946 60.454 64.898 64.502 64.898 69.494 L 64.898 405.414 C 64.898 410.407 68.946 414.454 73.938 414.454 L 461.264 414.454 C 553.294 414.454 627.898 339.85 627.898 247.821 L 627.898 69.494 L 627.898 69.494 Z " fill="rgb(63,61,86)"/><g><path d=" M 574.727 108.751 L 566.497 104.852 C 569.873 109.563 572.781 116.92 574.339 122.775 C 576.975 117.321 581.225 110.649 585.432 106.663 L 576.734 108.9 C 582.094 82.632 602.253 63.775 625.339 63.775 L 625.665 62.826 C 601.552 62.826 580.2 81.422 574.727 108.751 L 574.727 108.751 L 574.727 108.751 Z " fill="rgb(63,61,86)"/><path d=" M 612.606 148.775 L 560.606 148.775 C 558.401 148.775 556.606 146.98 556.606 144.775 C 556.606 142.569 558.401 140.775 560.606 140.775 L 612.606 140.775 C 614.812 140.775 616.606 142.569 616.606 144.775 C 616.606 146.98 614.812 148.775 612.606 148.775 Z " fill="rgb(139,139,139)"/></g><g><path d=" M 496.456 165.775 L 496.456 271.775 C 496.456 281.149 488.83 288.775 479.456 288.775 L 373.456 288.775 C 364.082 288.775 356.456 281.149 356.456 271.775 L 356.456 165.775 C 356.456 156.401 364.082 148.775 373.456 148.775 L 479.456 148.775 C 488.83 148.775 496.456 156.401 496.456 165.775 Z  M 472.88 286.775 C 484.796 286.775 494.456 277.115 494.456 265.199 L 494.456 218.334 C 494.456 181.022 464.209 150.775 426.897 150.775 L 373.456 150.775 C 365.172 150.775 358.456 157.49 358.456 165.775 L 358.456 256.985 C 358.456 273.438 371.793 286.775 388.246 286.775 L 472.88 286.775 L 472.88 286.775 L 472.88 286.775 Z " fill="rgb(63,61,86)"/><g><path d=" M 440.567 192.067 L 406.346 192.067 C 405.483 192.067 404.781 191.365 404.781 190.502 C 404.781 189.639 405.483 188.938 406.346 188.938 L 440.567 188.938 C 441.429 188.938 442.131 189.639 442.131 190.502 C 442.131 191.365 441.429 192.067 440.567 192.067 L 440.567 192.067 L 440.567 192.067 Z " fill="rgb(63,61,86)"/><path d=" M 440.567 225.431 L 406.346 225.431 C 405.483 225.431 404.781 224.729 404.781 223.866 C 404.781 223.003 405.483 222.301 406.346 222.301 L 440.567 222.301 C 441.429 222.301 442.131 223.003 442.131 223.866 C 442.131 224.729 441.429 225.431 440.567 225.431 L 440.567 225.431 L 440.567 225.431 Z " fill="rgb(63,61,86)"/><path d=" M 423.567 271.431 L 389.346 271.431 C 388.483 271.431 387.781 270.729 387.781 269.866 C 387.781 269.003 388.483 268.301 389.346 268.301 L 423.567 268.301 C 424.429 268.301 425.131 269.003 425.131 269.866 C 425.131 270.729 424.429 271.431 423.567 271.431 L 423.567 271.431 L 423.567 271.431 Z " fill="rgb(63,61,86)"/><path d=" M 458.93 208.76 L 387.983 208.76 C 387.12 208.76 386.418 208.058 386.418 207.195 C 386.418 206.332 387.12 205.631 387.983 205.631 L 458.93 205.631 C 459.793 205.631 460.494 206.332 460.494 207.195 C 460.494 208.058 459.793 208.76 458.93 208.76 L 458.93 208.76 L 458.93 208.76 Z " fill="rgb(63,61,86)"/></g></g><g><path d=" M 223.911 93.49 L 249.495 196.356 C 251.758 205.453 246.198 214.694 237.101 216.956 L 134.235 242.54 C 125.138 244.803 115.897 239.243 113.634 230.146 L 88.05 127.28 C 85.788 118.183 91.348 108.942 100.445 106.679 L 203.311 81.095 C 212.408 78.833 221.649 84.393 223.911 93.49 Z  M 230.237 216.603 C 241.801 213.727 248.843 202.021 245.967 190.457 L 234.656 144.978 C 225.651 108.769 188.997 86.716 152.788 95.722 L 100.927 108.62 C 92.888 110.62 87.992 118.758 89.991 126.797 L 112.006 215.311 C 115.977 231.277 132.138 241.001 148.104 237.03 L 230.237 216.603 L 230.237 216.603 L 230.237 216.603 Z " fill="rgb(63,61,86)"/><g><path d=" M 176.02 132.494 L 142.811 140.754 C 141.974 140.962 141.123 140.45 140.915 139.613 C 140.707 138.775 141.219 137.925 142.056 137.717 L 175.265 129.457 C 176.102 129.249 176.952 129.761 177.16 130.598 C 177.369 131.435 176.857 132.286 176.02 132.494 L 176.02 132.494 L 176.02 132.494 Z " fill="rgb(63,61,86)"/><path d=" M 184.073 164.871 L 150.864 173.131 C 150.026 173.339 149.176 172.827 148.968 171.99 C 148.759 171.153 149.271 170.302 150.108 170.094 L 183.317 161.835 C 184.155 161.627 185.005 162.138 185.213 162.975 C 185.421 163.813 184.91 164.663 184.073 164.871 L 184.073 164.871 L 184.073 164.871 Z " fill="rgb(63,61,86)"/><path d=" M 178.678 213.614 L 145.469 221.874 C 144.632 222.082 143.781 221.57 143.573 220.733 C 143.364 219.896 143.876 219.046 144.714 218.837 L 177.922 210.578 C 178.76 210.37 179.61 210.881 179.818 211.718 C 180.026 212.556 179.515 213.406 178.678 213.614 L 178.678 213.614 L 178.678 213.614 Z " fill="rgb(63,61,86)"/><path d=" M 197.869 144.261 L 129.02 161.385 C 128.183 161.593 127.332 161.081 127.124 160.244 C 126.915 159.407 127.427 158.556 128.265 158.348 L 197.114 141.225 C 197.951 141.016 198.801 141.528 199.01 142.365 C 199.218 143.202 198.706 144.053 197.869 144.261 L 197.869 144.261 L 197.869 144.261 Z " fill="rgb(63,61,86)"/></g></g><g><path d=" M 313.972 282.678 L 302.793 388.087 C 301.804 397.409 293.416 404.188 284.095 403.199 L 178.686 392.02 C 169.364 391.031 162.585 382.643 163.574 373.322 L 174.753 267.913 C 175.742 258.591 184.129 251.812 193.451 252.801 L 298.86 263.98 C 308.182 264.969 314.961 273.357 313.972 282.678 Z  M 277.766 400.517 C 289.616 401.774 300.241 393.187 301.497 381.337 L 306.44 334.733 C 310.375 297.63 283.487 264.361 246.383 260.426 L 193.24 254.789 C 185.002 253.916 177.616 259.886 176.742 268.124 L 167.122 358.826 C 165.387 375.186 177.243 389.856 193.604 391.591 L 277.766 400.517 L 277.766 400.517 L 277.766 400.517 Z " fill="rgb(63,61,86)"/><g><path d=" M 255.621 302.929 L 221.592 299.32 C 220.734 299.229 220.11 298.457 220.201 297.599 C 220.292 296.741 221.064 296.118 221.922 296.209 L 255.951 299.818 C 256.809 299.909 257.433 300.68 257.342 301.538 C 257.251 302.396 256.479 303.02 255.621 302.929 L 255.621 302.929 L 255.621 302.929 Z " fill="rgb(63,61,86)"/><path d=" M 252.103 336.107 L 218.073 332.498 C 217.215 332.407 216.591 331.635 216.682 330.777 C 216.773 329.919 217.545 329.295 218.403 329.386 L 252.433 332.995 C 253.291 333.086 253.914 333.858 253.823 334.716 C 253.732 335.574 252.961 336.198 252.103 336.107 L 252.103 336.107 L 252.103 336.107 Z " fill="rgb(63,61,86)"/><path d=" M 230.346 380.057 L 196.316 376.448 C 195.458 376.357 194.834 375.585 194.925 374.727 C 195.016 373.869 195.788 373.246 196.646 373.337 L 230.676 376.946 C 231.534 377.037 232.158 377.808 232.067 378.666 C 231.976 379.524 231.204 380.148 230.346 380.057 L 230.346 380.057 L 230.346 380.057 Z " fill="rgb(63,61,86)"/><path d=" M 272.122 321.466 L 201.57 313.983 C 200.712 313.892 200.088 313.12 200.179 312.262 C 200.27 311.404 201.043 310.78 201.9 310.871 L 272.452 318.354 C 273.31 318.445 273.933 319.217 273.842 320.075 C 273.751 320.933 272.98 321.557 272.122 321.466 L 272.122 321.466 L 272.122 321.466 Z " fill="rgb(63,61,86)"/></g></g><g><path d=" M 578.185 412.565 L 541.866 399.068 C 536.419 397.043 533.634 390.965 535.658 385.517 L 571.339 289.507 C 573.363 284.06 579.442 281.275 584.889 283.299 L 621.208 296.797 C 626.655 298.821 629.44 304.9 627.416 310.347 C 613.764 349.153 598.871 392.757 591.735 406.357 C 589.711 411.805 583.632 414.589 578.185 412.565 L 578.185 412.565 L 578.185 412.565 Z " fill="rgb(63,61,86)"/><path d=" M 618.469 335.972 C 618.239 335.886 617.982 336.004 617.896 336.235 L 612.926 349.609 C 612.84 349.839 612.958 350.096 613.188 350.182 C 613.419 350.267 613.676 350.15 613.762 349.919 L 618.732 336.545 C 618.817 336.315 618.7 336.058 618.469 335.972 Z " fill="rgb(63,61,86)"/><path d=" M 626.475 309.998 L 590.795 406.006 C 589.033 410.748 583.902 413.255 579.124 411.821 L 579.121 411.821 C 579.051 411.799 578.98 411.778 578.909 411.753 C 578.783 411.714 578.659 411.67 578.534 411.623 C 578.534 411.623 578.086 411.419 577.27 411.044 C 576.444 410.666 575.244 410.113 573.75 409.418 C 573.301 409.211 572.829 408.99 572.331 408.757 C 571.338 408.293 570.248 407.783 569.081 407.231 C 568.615 407.012 568.134 406.784 567.643 406.551 C 565.13 405.363 562.321 404.021 559.365 402.585 C 558.865 402.345 558.361 402.1 557.854 401.852 C 557.721 401.787 536.183 386.985 536.599 385.865 L 572.279 289.857 C 574.114 284.919 579.603 282.404 584.541 284.239 L 589.878 286.223 C 590.731 286.54 591.169 287.459 590.926 288.337 C 590.912 288.395 590.897 288.454 590.886 288.514 C 590.723 289.426 591.286 290.313 592.155 290.636 L 610.914 297.608 C 611.784 297.931 612.789 297.627 613.261 296.829 C 613.292 296.777 613.32 296.723 613.347 296.669 C 613.736 295.845 614.668 295.436 615.521 295.752 L 620.858 297.736 C 625.796 299.571 628.31 305.06 626.475 309.998 L 626.475 309.998 L 626.475 309.998 Z " fill="rgb(0,0,0)"/><path d=" M 565.404 304.836 C 565.174 304.75 564.917 304.868 564.831 305.098 L 563.589 308.442 C 563.503 308.672 563.621 308.929 563.851 309.015 C 564.082 309.101 564.339 308.983 564.424 308.752 L 565.667 305.409 C 565.753 305.178 565.635 304.921 565.404 304.836 Z " fill="rgb(63,61,86)"/><path d=" M 561.677 314.866 C 561.446 314.78 561.189 314.898 561.104 315.129 L 558.696 321.607 C 558.61 321.837 558.728 322.094 558.959 322.18 C 559.189 322.266 559.446 322.148 559.532 321.917 L 561.939 315.439 C 562.025 315.209 561.907 314.952 561.677 314.866 Z " fill="rgb(63,61,86)"/><path d=" M 558.26 324.061 C 558.029 323.975 557.772 324.093 557.687 324.323 L 555.279 330.801 C 555.193 331.032 555.311 331.289 555.542 331.374 C 555.772 331.46 556.029 331.342 556.115 331.112 L 558.522 324.634 C 558.608 324.403 558.49 324.146 558.26 324.061 Z " fill="rgb(63,61,86)"/><path d=" M 581.195 284.665 L 589.184 287.631 C 589.228 287.647 589.251 287.697 589.235 287.742 L 588.906 288.624 C 588.89 288.668 588.84 288.691 588.795 288.675 L 580.806 285.709 C 580.762 285.693 580.739 285.643 580.755 285.598 L 581.084 284.716 C 581.1 284.672 581.15 284.649 581.195 284.665 Z " fill="rgb(230,230,230)"/><circle vector-effect="non-scaling-stroke" cx="616.2199799999993" cy="297.9158699999997" r="0.8917300000000523" fill="rgb(230,230,230)"/><circle vector-effect="non-scaling-stroke" cx="618.5186299999998" cy="298.7701299999997" r="0.8917300000000523" fill="rgb(230,230,230)"/><circle vector-effect="non-scaling-stroke" cx="620.8172699999999" cy="299.62437999999975" r="0.8917300000000523" fill="rgb(230,230,230)"/></g><g><path d=" M 489.137 109.394 L 457.775 109.394 C 453.739 109.394 450.456 106.11 450.456 102.075 L 450.456 66.713 C 450.456 62.677 453.739 59.394 457.775 59.394 L 489.137 59.394 C 493.173 59.394 496.456 62.677 496.456 66.713 L 496.456 102.075 C 496.456 106.11 493.173 109.394 489.137 109.394 Z " fill="rgb(255,255,255)"/><path d=" M 489.137 109.394 L 457.775 109.394 C 453.739 109.394 450.456 106.11 450.456 102.075 C 448.879 89.053 448.445 76.926 450.456 66.713 C 450.456 62.677 453.739 59.394 457.775 59.394 L 489.137 59.394 C 493.173 59.394 496.456 62.677 496.456 66.713 L 496.456 102.075 C 496.456 106.11 493.173 109.394 489.137 109.394 L 489.137 109.394 L 489.137 109.394 Z  M 457.775 60.394 C 454.291 60.394 451.456 63.228 451.456 66.713 L 451.456 102.075 C 451.456 105.559 454.291 108.394 457.775 108.394 L 489.137 108.394 C 492.622 108.394 495.456 105.559 495.456 102.075 L 495.456 66.713 C 495.456 63.228 492.622 60.394 489.137 60.394 L 457.775 60.394 L 457.775 60.394 Z " fill="rgb(63,61,86)"/><path d=" M 485.968 80.894 L 460.127 80.894 C 459.031 80.894 458.14 80.002 458.14 78.906 C 458.14 77.81 459.031 76.918 460.127 76.918 L 485.968 76.918 C 487.065 76.918 487.956 77.81 487.956 78.906 C 487.956 80.002 487.065 80.894 485.968 80.894 Z " fill="rgb(139,139,139)"/><path d=" M 485.968 91.894 L 460.127 91.894 C 459.031 91.894 458.14 91.002 458.14 89.906 C 458.14 88.81 459.031 87.918 460.127 87.918 L 485.968 87.918 C 487.065 87.918 487.956 88.81 487.956 89.906 C 487.956 91.002 487.065 91.894 485.968 91.894 Z " fill="rgb(116,116,116)"/><path d=" M 485.968 69.894 L 460.127 69.894 C 459.031 69.894 458.14 69.002 458.14 67.906 C 458.14 66.81 459.031 65.918 460.127 65.918 L 485.968 65.918 C 487.065 65.918 487.956 66.81 487.956 67.906 C 487.956 69.002 487.065 69.894 485.968 69.894 Z " fill="rgb(162,162,162)"/></g><g><path d=" M 334.035 158.451 L 303.243 152.496 C 299.281 151.73 296.681 147.883 297.447 143.921 L 304.161 109.202 C 304.928 105.24 308.775 102.64 312.737 103.406 L 343.529 109.361 C 347.491 110.127 350.091 113.974 349.325 117.936 L 342.61 152.655 C 341.844 156.617 337.997 159.217 334.035 158.451 Z " fill="rgb(255,255,255)"/><path d=" M 334.035 158.451 L 303.243 152.496 C 299.281 151.73 296.681 147.883 297.447 143.921 C 298.371 130.837 300.247 118.848 304.161 109.202 C 304.928 105.24 308.775 102.64 312.737 103.406 L 343.529 109.361 C 347.491 110.127 350.091 113.974 349.325 117.936 L 342.61 152.655 C 341.844 156.617 337.997 159.217 334.035 158.451 L 334.035 158.451 L 334.035 158.451 Z  M 312.547 104.388 C 309.126 103.726 305.805 105.971 305.143 109.392 L 298.429 144.111 C 297.767 147.532 300.012 150.853 303.433 151.515 L 334.225 157.469 C 337.646 158.131 340.967 155.886 341.629 152.465 L 348.343 117.746 C 349.004 114.325 346.76 111.004 343.339 110.342 L 312.547 104.388 L 312.547 104.388 Z " fill="rgb(63,61,86)"/><path d=" M 336.335 129.868 L 310.964 124.961 C 309.888 124.753 309.182 123.708 309.39 122.632 C 309.598 121.556 310.643 120.85 311.719 121.058 L 337.09 125.965 C 338.166 126.173 338.872 127.218 338.664 128.294 C 338.456 129.37 337.411 130.076 336.335 129.868 Z " fill="rgb(0,0,0)"/><path d=" M 334.247 140.668 L 308.875 135.761 C 307.799 135.553 307.093 134.508 307.301 133.432 C 307.509 132.356 308.554 131.65 309.63 131.858 L 335.001 136.765 C 336.078 136.973 336.784 138.017 336.576 139.094 C 336.367 140.17 335.323 140.876 334.247 140.668 Z " fill="rgb(0,0,0)"/><path d=" M 338.424 119.068 L 313.053 114.162 C 311.976 113.953 311.27 112.909 311.478 111.832 C 311.687 110.756 312.731 110.05 313.807 110.258 L 339.179 115.165 C 340.255 115.373 340.961 116.418 340.753 117.494 C 340.545 118.57 339.5 119.276 338.424 119.068 Z " fill="rgb(0,0,0)"/></g><g><path d=" M 567.032 237.454 L 535.669 237.454 C 531.634 237.454 528.351 234.171 528.351 230.136 L 528.351 194.773 C 528.351 190.738 531.634 187.454 535.669 187.454 L 567.032 187.454 C 571.067 187.454 574.351 190.738 574.351 194.773 L 574.351 230.136 C 574.351 234.171 571.067 237.454 567.032 237.454 Z " fill="rgb(255,255,255)"/><path d=" M 567.032 237.454 L 535.669 237.454 C 531.634 237.454 528.351 234.171 528.351 230.136 C 526.774 217.114 526.339 204.987 528.351 194.773 C 528.351 190.738 531.634 187.454 535.669 187.454 L 567.032 187.454 C 571.067 187.454 574.351 190.738 574.351 194.773 L 574.351 230.136 C 574.351 234.171 571.067 237.454 567.032 237.454 L 567.032 237.454 L 567.032 237.454 Z  M 535.669 188.454 C 532.185 188.454 529.351 191.289 529.351 194.773 L 529.351 230.136 C 529.351 233.62 532.185 236.454 535.669 236.454 L 567.032 236.454 C 570.516 236.454 573.351 233.62 573.351 230.136 L 573.351 194.773 C 573.351 191.289 570.516 188.454 567.032 188.454 L 535.669 188.454 L 535.669 188.454 Z " fill="rgb(63,61,86)"/><path d=" M 563.863 208.954 L 538.022 208.954 C 536.926 208.954 536.034 208.063 536.034 206.967 C 536.034 205.871 536.926 204.979 538.022 204.979 L 563.863 204.979 C 564.959 204.979 565.851 205.871 565.851 206.967 C 565.851 208.063 564.959 208.954 563.863 208.954 Z " fill="rgb(0,0,0)"/><path d=" M 563.863 219.954 L 538.022 219.954 C 536.926 219.954 536.034 219.063 536.034 217.967 C 536.034 216.871 536.926 215.979 538.022 215.979 L 563.863 215.979 C 564.959 215.979 565.851 216.871 565.851 217.967 C 565.851 219.063 564.959 219.954 563.863 219.954 Z " fill="rgb(0,0,0)"/><path d=" M 563.863 197.954 L 538.022 197.954 C 536.926 197.954 536.034 197.063 536.034 195.967 C 536.034 194.871 536.926 193.979 538.022 193.979 L 563.863 193.979 C 564.959 193.979 565.851 194.871 565.851 195.967 C 565.851 197.063 564.959 197.954 563.863 197.954 Z " fill="rgb(0,0,0)"/></g><g><path d=" M 370.137 462.394 L 338.775 462.394 C 334.739 462.394 331.456 459.11 331.456 455.075 L 331.456 419.713 C 331.456 415.677 334.739 412.394 338.775 412.394 L 370.137 412.394 C 374.173 412.394 377.456 415.677 377.456 419.713 L 377.456 455.075 C 377.456 459.11 374.173 462.394 370.137 462.394 Z " fill="rgb(255,255,255)"/><path d=" M 370.137 462.394 L 338.775 462.394 C 334.739 462.394 331.456 459.11 331.456 455.075 C 329.879 442.053 329.445 429.926 331.456 419.713 C 331.456 415.677 334.739 412.394 338.775 412.394 L 370.137 412.394 C 374.173 412.394 377.456 415.677 377.456 419.713 L 377.456 455.075 C 377.456 459.11 374.173 462.394 370.137 462.394 L 370.137 462.394 L 370.137 462.394 Z  M 338.775 413.394 C 335.291 413.394 332.456 416.228 332.456 419.713 L 332.456 455.075 C 332.456 458.559 335.291 461.394 338.775 461.394 L 370.137 461.394 C 373.622 461.394 376.456 458.559 376.456 455.075 L 376.456 419.713 C 376.456 416.228 373.622 413.394 370.137 413.394 L 338.775 413.394 L 338.775 413.394 Z " fill="rgb(63,61,86)"/><path d=" M 366.968 433.894 L 341.127 433.894 C 340.031 433.894 339.14 433.002 339.14 431.906 C 339.14 430.81 340.031 429.918 341.127 429.918 L 366.968 429.918 C 368.065 429.918 368.956 430.81 368.956 431.906 C 368.956 433.002 368.064 433.894 366.968 433.894 L 366.968 433.894 L 366.968 433.894 Z " fill="rgb(139,139,139)"/><path d=" M 366.968 444.894 L 357 444.894 L 341.127 444.894 C 340.031 444.894 339.14 444.002 339.14 442.906 C 339.14 441.81 340.031 440.918 341.127 440.918 L 366.968 440.918 C 368.065 440.918 368.956 441.81 368.956 442.906 C 368.956 444.002 368.064 444.894 366.968 444.894 L 366.968 444.894 Z " fill="rgb(139,139,139)"/><path d=" M 366.968 422.894 L 341.127 422.894 C 340.031 422.894 339.14 422.002 339.14 420.906 C 339.14 419.81 340.031 418.918 341.127 418.918 L 366.968 418.918 C 368.065 418.918 368.956 419.81 368.956 420.906 C 368.956 422.002 368.064 422.894 366.968 422.894 L 366.968 422.894 L 366.968 422.894 Z " fill="rgb(162,162,162)"/></g></g></g></g></svg>