<?xml version="1.0" encoding="UTF-8" standalone="no"?><!-- Generator: Gravit.io --><svg xmlns="http://www.w3.org/2000/svg" xmlns:xlink="http://www.w3.org/1999/xlink" style="isolation:isolate" viewBox="0 0 660.472 645.448" width="660.472pt" height="645.448pt"><defs><clipPath id="_clipPath_EMjFDn03hC5s43pTseUxMudnLZSfYxJe"><rect width="660.472" height="645.448"/></clipPath></defs><g clip-path="url(#_clipPath_EMjFDn03hC5s43pTseUxMudnLZSfYxJe)"><clipPath id="_clipPath_TYHAJGUHQfqrPFZIXiRH4AzxeA3cAVms"><rect x="0" y="0" width="660.472" height="645.448" transform="matrix(1,0,0,1,0,0)" fill="rgb(255,255,255)"/></clipPath><g clip-path="url(#_clipPath_TYHAJGUHQfqrPFZIXiRH4AzxeA3cAVms)"><g><path d=" M 396.705 136.023 L 138.135 136.023 C 126.907 136.036 117.808 145.135 117.795 156.363 L 117.795 285.053 C 117.808 296.281 126.907 305.38 138.135 305.393 L 396.705 305.393 C 407.935 305.384 417.036 296.283 417.045 285.053 L 417.045 156.363 C 417.036 145.134 407.935 136.033 396.705 136.023 L 396.705 136.023 Z " fill="rgb(255,255,255)"/><path d=" M 396.706 306.396 L 138.14 306.396 C 126.359 306.382 116.813 296.836 116.8 285.055 L 116.8 156.362 C 116.813 144.581 126.359 135.035 138.14 135.021 L 396.706 135.021 C 408.487 135.035 418.033 144.581 418.047 156.362 L 418.047 285.055 C 418.033 296.836 408.487 306.382 396.706 306.396 L 396.706 306.396 Z  M 138.14 137.021 C 127.464 137.033 118.812 145.685 118.8 156.362 L 118.8 285.055 C 118.812 295.732 127.464 304.384 138.14 304.396 L 396.706 304.396 C 407.383 304.384 416.034 295.732 416.047 285.055 L 416.047 156.362 C 416.034 145.685 407.383 137.033 396.706 137.021 L 138.14 137.021 Z " fill="rgb(204,204,204)"/><path d=" M 240.248 264.965 C 238.78 264.96 237.337 264.585 236.053 263.872 C 233.256 262.363 231.521 259.431 231.546 256.253 L 231.546 184.43 C 231.546 181.258 233.273 178.338 236.053 176.811 C 238.833 175.283 242.224 175.391 244.901 177.091 L 313.032 213.003 C 315.543 214.598 317.064 217.366 317.064 220.341 C 317.064 223.316 315.543 226.085 313.032 227.68 L 244.901 263.591 C 243.513 264.483 241.898 264.96 240.248 264.965 L 240.248 264.965 Z " fill="rgb(242,242,242)"/><path d=" M 640.352 229.157 L 532.299 229.157 C 527.607 229.151 523.805 225.349 523.799 220.657 L 523.799 166.877 C 523.805 162.185 527.607 158.382 532.299 158.377 L 640.352 158.377 C 645.044 158.382 648.846 162.185 648.852 166.877 L 648.852 220.657 C 648.846 225.349 645.044 229.151 640.352 229.157 L 640.352 229.157 Z " fill="rgb(255,255,255)"/><path d=" M 640.352 230.157 L 532.3 230.157 C 527.055 230.151 522.805 225.901 522.8 220.657 L 522.8 166.877 C 522.805 161.632 527.055 157.383 532.3 157.377 L 640.352 157.377 C 645.596 157.383 649.846 161.632 649.852 166.877 L 649.852 220.657 C 649.846 225.901 645.596 230.151 640.352 230.157 L 640.352 230.157 Z  M 532.3 159.377 C 528.159 159.381 524.804 162.736 524.8 166.877 L 524.8 220.657 C 524.804 224.797 528.159 228.152 532.3 228.157 L 640.352 228.157 C 644.492 228.152 647.847 224.797 647.852 220.657 L 647.852 166.877 C 647.847 162.736 644.492 159.381 640.352 159.377 L 532.3 159.377 Z " fill="rgb(204,204,204)"/><path d=" M 622.6 255.472 L 549.812 255.472 C 545.355 255.468 541.745 251.853 541.745 247.397 C 541.745 242.94 545.355 239.326 549.812 239.321 L 622.6 239.321 C 627.06 239.321 630.676 242.937 630.676 247.397 C 630.676 251.857 627.06 255.472 622.6 255.472 L 622.6 255.472 Z " fill="rgb(230,230,230)"/><path d=" M 574.707 212.905 C 574.093 212.904 573.49 212.747 572.954 212.449 C 571.785 211.818 571.06 210.593 571.07 209.265 L 571.07 179.251 C 571.07 177.925 571.792 176.705 572.954 176.067 C 574.115 175.428 575.533 175.473 576.651 176.184 L 605.123 191.191 C 606.172 191.858 606.808 193.014 606.808 194.258 C 606.808 195.501 606.172 196.658 605.123 197.324 L 576.651 212.331 C 576.071 212.704 575.396 212.903 574.707 212.905 L 574.707 212.905 Z " fill="rgb(0,0,0)"/><path d=" M 571.352 460.512 L 463.299 460.512 C 458.607 460.507 454.805 456.705 454.799 452.012 L 454.799 398.233 C 454.805 393.54 458.607 389.738 463.299 389.733 L 571.352 389.733 C 576.044 389.738 579.846 393.54 579.852 398.233 L 579.852 452.012 C 579.846 456.705 576.044 460.507 571.352 460.512 L 571.352 460.512 Z " fill="rgb(255,255,255)"/><path d=" M 571.352 461.512 L 463.3 461.512 C 458.055 461.507 453.805 457.257 453.8 452.012 L 453.8 398.233 C 453.805 392.988 458.055 388.739 463.3 388.733 L 571.352 388.733 C 576.596 388.739 580.846 392.988 580.852 398.233 L 580.852 452.012 C 580.846 457.257 576.596 461.507 571.352 461.512 L 571.352 461.512 Z  M 463.3 390.733 C 459.159 390.737 455.804 394.092 455.8 398.233 L 455.8 452.012 C 455.804 456.153 459.159 459.508 463.3 459.512 L 571.352 459.512 C 575.492 459.508 578.847 456.153 578.852 452.012 L 578.852 398.233 C 578.847 394.092 575.492 390.737 571.352 390.733 L 463.3 390.733 Z " fill="rgb(204,204,204)"/><path d=" M 553.6 486.972 L 480.812 486.972 C 476.355 486.967 472.745 483.353 472.745 478.897 C 472.745 474.44 476.355 470.826 480.812 470.821 L 553.6 470.821 C 558.06 470.821 561.676 474.437 561.676 478.897 C 561.676 483.357 558.06 486.972 553.6 486.972 Z " fill="rgb(230,230,230)"/><path d=" M 505.444 445.905 C 504.831 445.904 504.228 445.747 503.691 445.449 C 502.522 444.818 501.797 443.593 501.808 442.265 L 501.808 412.251 C 501.807 410.925 502.529 409.705 503.691 409.067 C 504.853 408.428 506.27 408.473 507.389 409.184 L 535.86 424.191 C 536.909 424.858 537.545 426.014 537.545 427.258 C 537.545 428.501 536.909 429.658 535.86 430.324 L 507.389 445.331 C 506.808 445.704 506.134 445.903 505.444 445.905 L 505.444 445.905 Z " fill="rgb(162,162,162)"/><path d=" M 193.748 285.151 C 192.281 285.147 190.838 284.771 189.554 284.059 C 186.756 282.55 185.022 279.618 185.047 276.439 L 185.047 204.616 C 185.047 201.445 186.774 198.524 189.554 196.997 C 192.334 195.469 195.725 195.577 198.402 197.278 L 266.533 233.189 C 269.044 234.784 270.565 237.553 270.565 240.528 C 270.565 243.503 269.044 246.271 266.533 247.866 L 198.402 283.777 C 197.014 284.67 195.399 285.146 193.748 285.151 L 193.748 285.151 Z " fill="rgb(255,0,0)"/><path d=" M 600.668 34.484 L 146.375 34.484 C 145.392 34.463 144.606 33.661 144.606 32.678 C 144.606 31.695 145.392 30.892 146.375 30.871 L 600.668 30.871 C 601.65 30.892 602.436 31.695 602.436 32.678 C 602.436 33.661 601.65 34.463 600.668 34.484 Z " fill="rgb(202,202,202)"/><ellipse vector-effect="non-scaling-stroke" cx="177.29892999999998" cy="10.823450000000054" rx="10.587510000000009" ry="10.823449999999998" fill="rgb(255,0,0)"/><ellipse vector-effect="non-scaling-stroke" cx="213.87394999999995" cy="10.823450000000054" rx="10.587510000000009" ry="10.823449999999998" fill="rgb(162,162,162)"/><ellipse vector-effect="non-scaling-stroke" cx="250.44896999999992" cy="10.823450000000054" rx="10.587509999999995" ry="10.823449999999998" fill="rgb(0,0,0)"/><path d=" M 578.646 2.683 L 552.665 2.683 C 551.594 2.704 550.737 3.578 550.737 4.65 C 550.737 5.721 551.594 6.596 552.665 6.617 L 578.646 6.617 C 579.718 6.596 580.575 5.721 580.575 4.65 C 580.575 3.578 579.718 2.704 578.646 2.683 Z " fill="rgb(63,61,86)"/><path d=" M 578.646 10.067 L 552.665 10.067 C 551.594 10.088 550.737 10.963 550.737 12.034 C 550.737 13.106 551.594 13.98 552.665 14.002 L 578.646 14.002 C 579.718 13.98 580.575 13.106 580.575 12.034 C 580.575 10.963 579.718 10.088 578.646 10.067 Z " fill="rgb(0,0,0)"/><path d=" M 578.646 17.442 L 552.665 17.442 C 551.594 17.463 550.737 18.337 550.737 19.409 C 550.737 20.48 551.594 21.355 552.665 21.376 L 578.646 21.376 C 579.718 21.355 580.575 20.48 580.575 19.409 C 580.575 18.337 579.718 17.463 578.646 17.442 Z " fill="rgb(0,0,0)"/><path d=" M 359.075 136.023 L 359.075 163.183 C 359.075 164.533 356.715 165.663 353.535 165.973 C 353.508 165.972 353.481 165.975 353.455 165.983 C 352.925 166.023 352.365 166.053 351.795 166.053 C 350.042 166.085 348.297 165.801 346.645 165.213 C 346.495 165.153 346.345 165.083 346.195 165.023 C 346.055 164.943 345.905 164.873 345.765 164.793 C 344.975 164.323 344.515 163.773 344.515 163.183 L 344.515 136.023 L 359.075 136.023 Z " fill="rgb(204,204,204)"/><circle vector-effect="non-scaling-stroke" cx="580.0996199999998" cy="457.7855799999999" r="12.372349999999983" fill="rgb(63,61,86)"/><path d=" M 579.173 462.73 C 579.147 462.73 579.121 462.729 579.094 462.728 C 578.623 462.705 578.185 462.478 577.895 462.105 L 575.827 459.447 C 575.563 459.108 575.445 458.678 575.498 458.252 C 575.552 457.826 575.772 457.439 576.111 457.175 L 576.185 457.117 C 576.524 456.853 576.954 456.735 577.38 456.788 C 577.806 456.841 578.194 457.062 578.458 457.401 C 578.669 457.672 578.988 457.838 579.332 457.855 C 579.675 457.871 580.009 457.738 580.246 457.488 L 584.444 453.056 C 585.059 452.408 586.083 452.38 586.732 452.994 L 586.801 453.059 C 587.113 453.355 587.295 453.762 587.306 454.191 C 587.318 454.62 587.158 455.036 586.863 455.348 L 580.348 462.225 C 580.043 462.547 579.618 462.73 579.173 462.73 Z " fill="rgb(255,255,255)"/><path d=" M 239.916 475.211 L 131.864 475.211 C 127.172 475.206 123.369 471.403 123.364 466.711 L 123.364 412.931 C 123.369 408.239 127.172 404.436 131.864 404.431 L 239.916 404.431 C 244.608 404.436 248.411 408.239 248.416 412.931 L 248.416 466.711 C 248.411 471.403 244.608 475.206 239.916 475.211 L 239.916 475.211 Z " fill="rgb(255,255,255)"/><path d=" M 239.916 476.211 L 131.864 476.211 C 126.62 476.205 122.37 471.955 122.364 466.711 L 122.364 412.931 C 122.37 407.687 126.62 403.437 131.864 403.431 L 239.916 403.431 C 245.16 403.437 249.41 407.687 249.416 412.931 L 249.416 466.711 C 249.41 471.955 245.16 476.205 239.916 476.211 L 239.916 476.211 Z  M 131.864 405.431 C 127.724 405.436 124.369 408.791 124.364 412.931 L 124.364 466.711 C 124.369 470.851 127.724 474.207 131.864 474.211 L 239.916 474.211 C 244.057 474.207 247.412 470.851 247.416 466.711 L 247.416 412.931 C 247.412 408.791 244.057 405.436 239.916 405.431 L 131.864 405.431 Z " fill="rgb(204,204,204)"/><path d=" M 222.165 501.671 L 149.376 501.671 C 144.92 501.666 141.309 498.052 141.309 493.595 C 141.309 489.139 144.92 485.525 149.376 485.52 L 222.165 485.52 C 226.625 485.52 230.24 489.135 230.24 493.595 C 230.24 498.055 226.625 501.671 222.165 501.671 Z " fill="rgb(230,230,230)"/><path d=" M 174.008 460.604 C 173.395 460.602 172.792 460.445 172.256 460.147 C 171.086 459.517 170.362 458.292 170.372 456.963 L 170.372 426.949 C 170.372 425.624 171.094 424.404 172.256 423.765 C 173.417 423.127 174.834 423.172 175.953 423.883 L 204.424 438.89 C 205.474 439.556 206.109 440.713 206.109 441.956 C 206.109 443.2 205.474 444.356 204.424 445.023 L 175.953 460.03 C 175.373 460.403 174.698 460.602 174.008 460.604 L 174.008 460.604 Z " fill="rgb(23,23,23)"/><circle vector-effect="non-scaling-stroke" cx="248.66412999999994" cy="472.48423165229286" r="12.372349999999983" fill="rgb(63,61,86)"/><path d=" M 247.738 477.429 C 247.711 477.429 247.685 477.428 247.659 477.427 C 247.187 477.404 246.749 477.176 246.459 476.804 L 244.392 474.145 C 244.128 473.807 244.01 473.377 244.063 472.951 C 244.116 472.525 244.336 472.137 244.675 471.874 L 244.75 471.816 C 245.089 471.552 245.519 471.434 245.945 471.487 C 246.371 471.54 246.759 471.761 247.022 472.1 C 247.233 472.371 247.553 472.537 247.896 472.553 C 248.24 472.57 248.573 472.436 248.81 472.187 L 253.008 467.755 C 253.623 467.107 254.647 467.079 255.297 467.692 L 255.366 467.758 C 255.677 468.053 255.859 468.46 255.871 468.89 C 255.882 469.319 255.723 469.735 255.427 470.047 L 248.912 476.923 C 248.607 477.246 248.182 477.429 247.738 477.429 Z " fill="rgb(255,255,255)"/><circle vector-effect="non-scaling-stroke" cx="648.0996199999998" cy="227.78558" r="12.372349999999983" fill="rgb(63,61,86)"/><path d=" M 647.173 232.73 C 647.147 232.73 647.121 232.729 647.094 232.728 C 646.623 232.705 646.185 232.478 645.895 232.105 L 643.827 229.447 C 643.563 229.108 643.445 228.678 643.498 228.252 C 643.552 227.826 643.772 227.439 644.111 227.175 L 644.185 227.117 C 644.524 226.853 644.954 226.735 645.38 226.788 C 645.806 226.841 646.194 227.062 646.458 227.401 C 646.669 227.672 646.988 227.838 647.332 227.855 C 647.675 227.871 648.009 227.738 648.246 227.488 L 652.444 223.056 C 653.059 222.408 654.083 222.38 654.732 222.994 L 654.801 223.059 C 655.113 223.355 655.295 223.762 655.306 224.191 C 655.318 224.62 655.158 225.036 654.863 225.348 L 648.348 232.225 C 648.043 232.547 647.618 232.73 647.173 232.73 L 647.173 232.73 Z " fill="rgb(255,255,255)"/></g></g></g></svg>