<?xml version="1.0" encoding="UTF-8" standalone="no"?><!-- Generator: Gravit.io --><svg xmlns="http://www.w3.org/2000/svg" xmlns:xlink="http://www.w3.org/1999/xlink" style="isolation:isolate" viewBox="0 0 580.101 580" width="580.101pt" height="580pt"><defs><clipPath id="_clipPath_DfqPCtfsuoRw0fiVR1DLYTgEs7UAh4Kr"><rect width="580.101" height="580"/></clipPath></defs><g clip-path="url(#_clipPath_DfqPCtfsuoRw0fiVR1DLYTgEs7UAh4Kr)"><clipPath id="_clipPath_nPG5cdLFR10P2GiAPtt1W7iJxRTRSF8e"><rect x="0" y="0" width="580.101" height="580" transform="matrix(1,0,0,1,0,0)" fill="rgb(255,255,255)"/></clipPath><g clip-path="url(#_clipPath_nPG5cdLFR10P2GiAPtt1W7iJxRTRSF8e)"><g><path d=" M 465.125 394.873 L 244.734 394.873 C 238.521 394.866 233.485 390.021 233.478 384.042 L 233.478 226.716 C 233.485 220.738 238.521 215.893 244.734 215.886 L 465.125 215.886 C 471.339 215.893 476.374 220.738 476.382 226.716 L 476.382 384.042 C 476.374 390.021 471.339 394.866 465.125 394.873 L 465.125 394.873 Z " fill="rgb(255,255,255)"/><path d=" M 273.263 318.957 L 315.885 319.63 L 340.711 319.63 C 343 319.627 344.855 317.842 344.858 315.64 L 344.858 314.245 L 323.481 292.129 C 322.714 291.336 321.645 290.877 320.519 290.857 C 319.393 290.838 318.308 291.259 317.511 292.025 L 296.487 312.254 C 295.33 313.365 293.457 313.366 292.299 312.256 L 289.187 309.266 C 287.566 307.711 284.943 307.713 283.323 309.269 L 273.263 318.957 Z " fill="rgb(94,120,146)"/><path d=" M 465.125 394.873 L 244.734 394.873 C 238.521 394.866 233.485 390.021 233.478 384.042 L 233.478 226.716 C 233.485 220.738 238.521 215.893 244.734 215.886 L 465.125 215.886 C 471.339 215.893 476.374 220.738 476.382 226.716 L 476.382 384.042 C 476.374 390.021 471.339 394.866 465.125 394.873 L 465.125 394.873 Z  M 244.734 219.306 C 240.483 219.311 237.037 222.626 237.033 226.716 L 237.033 384.042 C 237.037 388.133 240.483 391.448 244.734 391.452 L 465.125 391.452 C 469.377 391.448 472.822 388.133 472.827 384.042 L 472.827 226.716 C 472.822 222.626 469.377 219.311 465.125 219.306 L 244.734 219.306 Z " fill="rgb(0,0,0)"/><path d=" M 440.242 243.817 L 269.617 243.817 C 267.654 243.817 266.063 242.286 266.063 240.397 C 266.063 238.508 267.654 236.977 269.617 236.977 L 440.242 236.977 C 442.205 236.977 443.797 238.508 443.797 240.397 C 443.797 242.286 442.205 243.817 440.242 243.817 Z " fill="rgb(0,0,0)"/><path d=" M 440.835 262.628 L 270.21 262.628 C 268.246 262.628 266.655 261.097 266.655 259.208 C 266.655 257.319 268.246 255.788 270.21 255.788 L 440.835 255.788 C 442.798 255.788 444.389 257.319 444.389 259.208 C 444.389 261.097 442.798 262.628 440.835 262.628 Z " fill="rgb(0,0,0)"/><path d=" M 441.427 281.438 L 359.669 281.438 C 357.706 281.438 356.115 279.907 356.115 278.018 C 356.115 276.129 357.706 274.598 359.669 274.598 L 441.427 274.598 C 443.39 274.598 444.982 276.129 444.982 278.018 C 444.982 279.907 443.39 281.438 441.427 281.438 Z " fill="rgb(0,0,0)"/><path d=" M 442.02 300.249 L 360.262 300.249 C 358.299 300.249 356.707 298.718 356.707 296.829 C 356.707 294.94 358.299 293.409 360.262 293.409 L 442.02 293.409 C 443.983 293.409 445.574 294.94 445.574 296.829 C 445.574 298.718 443.983 300.249 442.02 300.249 Z " fill="rgb(0,0,0)"/><path d=" M 442.612 319.06 L 360.854 319.06 C 358.891 319.06 357.3 317.529 357.3 315.64 C 357.3 313.751 358.891 312.22 360.854 312.22 L 442.612 312.22 C 444.575 312.22 446.167 313.751 446.167 315.64 C 446.167 317.529 444.575 319.06 442.612 319.06 Z " fill="rgb(0,0,0)"/><path d=" M 443.204 337.87 L 272.579 337.87 C 270.616 337.87 269.025 336.339 269.025 334.45 C 269.025 332.561 270.616 331.03 272.579 331.03 L 443.204 331.03 C 445.168 331.03 446.759 332.561 446.759 334.45 C 446.759 336.339 445.168 337.87 443.204 337.87 Z " fill="rgb(0,0,0)"/><path d=" M 443.797 356.681 L 273.172 356.681 C 271.209 356.681 269.617 355.15 269.617 353.261 C 269.617 351.372 271.209 349.841 273.172 349.841 L 443.797 349.841 C 445.76 349.841 447.352 351.372 447.352 353.261 C 447.352 355.15 445.76 356.681 443.797 356.681 Z " fill="rgb(0,0,0)"/><path d=" M 444.389 375.492 L 273.764 375.492 C 271.801 375.492 270.21 373.961 270.21 372.072 C 270.21 370.183 271.801 368.652 273.764 368.652 L 444.389 368.652 C 446.353 368.652 447.944 370.183 447.944 372.072 C 447.944 373.961 446.353 375.492 444.389 375.492 Z " fill="rgb(0,0,0)"/><path d=" M 340.711 320.2 L 274.357 320.2 C 273.369 320.202 272.397 319.963 271.532 319.505 L 271.515 319.505 L 271.214 319.33 C 269.481 318.291 268.429 316.464 268.432 314.5 L 268.432 280.298 C 268.436 277.152 271.086 274.602 274.357 274.598 L 340.711 274.598 C 343.981 274.602 346.632 277.152 346.635 280.298 L 346.635 314.5 C 346.632 317.646 343.981 320.196 340.711 320.2 L 340.711 320.2 Z  M 272.325 317.304 L 272.495 317.404 C 273.052 317.744 273.698 317.923 274.357 317.92 L 340.711 317.92 C 342.673 317.918 344.263 316.388 344.266 314.5 L 344.266 280.298 C 344.263 278.41 342.673 276.88 340.711 276.878 L 274.357 276.878 C 272.395 276.88 270.804 278.41 270.802 280.298 L 270.802 314.5 C 270.8 315.618 271.37 316.666 272.325 317.304 L 272.325 317.304 Z " fill="rgb(0,0,0)"/><path d=" M 69.54 420.046 C 68.332 420.299 67.38 421.194 67.09 422.351 C 66.8 423.507 67.223 424.722 68.179 425.476 L 82.43 436.732 C 82.638 436.899 82.811 437.104 82.938 437.335 C 83.056 437.568 83.123 437.823 83.135 438.082 L 84.149 458.867 C 84.19 460.267 85.223 461.458 86.647 461.748 L 86.672 461.753 C 88.078 462.076 89.532 461.435 90.197 460.199 L 95.257 451.195 C 95.602 450.591 96.266 450.219 96.983 450.229 C 97.506 450.229 98.006 450.438 98.361 450.808 L 123.063 475.868 C 123.786 476.607 124.842 476.955 125.884 476.799 C 126.923 476.644 127.819 476.013 128.286 475.107 L 163.85 405.619 C 164.399 404.551 164.263 403.275 163.502 402.336 C 162.74 401.397 161.487 400.961 160.277 401.214 L 159.113 401.455 L 69.54 420.046 L 69.54 420.046 Z  M 68.993 424.52 C 68.42 424.065 68.168 423.336 68.343 422.642 C 68.518 421.948 69.09 421.411 69.815 421.26 L 159.36 402.676 L 160.552 402.428 C 161.277 402.28 162.025 402.542 162.481 403.104 C 162.937 403.665 163.021 404.428 162.696 405.068 L 127.132 474.557 C 126.852 475.101 126.313 475.48 125.689 475.571 C 125.065 475.662 124.433 475.454 123.998 475.013 L 99.297 449.953 C 99.055 449.703 98.771 449.494 98.455 449.336 L 160.558 405.445 C 161.062 405.096 161.236 404.452 160.973 403.911 C 160.71 403.37 160.083 403.086 159.482 403.235 C 159.411 403.252 159.342 403.275 159.275 403.305 L 83.745 436.263 C 83.598 436.082 83.429 435.919 83.244 435.775 L 68.993 424.52 L 68.993 424.52 Z " fill="rgb(230,230,230)"/><path d=" M 69.54 420.046 C 68.332 420.299 67.38 421.194 67.09 422.351 C 66.8 423.507 67.223 424.722 68.179 425.476 L 82.43 436.732 C 82.638 436.899 82.811 437.104 82.938 437.335 C 83.056 437.568 83.123 437.823 83.135 438.082 L 84.149 458.867 C 84.19 460.267 85.223 461.458 86.647 461.748 L 86.672 461.753 C 88.078 462.076 89.532 461.435 90.197 460.199 L 95.257 451.195 C 95.602 450.591 96.266 450.219 96.983 450.229 C 97.506 450.229 98.006 450.438 98.361 450.808 L 123.063 475.868 C 123.786 476.607 124.842 476.955 125.884 476.799 C 126.923 476.644 127.819 476.013 128.286 475.107 L 163.85 405.619 C 164.399 404.551 164.263 403.275 163.502 402.336 C 162.74 401.397 161.487 400.961 160.277 401.214 L 159.113 401.455 L 69.54 420.046 L 69.54 420.046 Z  M 68.993 424.52 C 68.42 424.065 68.168 423.336 68.343 422.642 C 68.518 421.948 69.09 421.411 69.815 421.26 L 159.36 402.676 L 160.552 402.428 C 161.277 402.28 162.025 402.542 162.481 403.104 C 162.937 403.665 163.021 404.428 162.696 405.068 L 127.132 474.557 C 126.852 475.101 126.313 475.48 125.689 475.571 C 125.065 475.662 124.433 475.454 123.998 475.013 L 99.297 449.953 C 99.055 449.703 98.771 449.494 98.455 449.336 C 98.004 449.107 97.502 448.987 96.992 448.987 C 96.92 448.984 96.846 448.987 96.773 448.991 L 96.767 448.989 C 95.655 449.051 94.656 449.662 94.125 450.605 L 89.064 459.615 C 88.666 460.36 87.789 460.743 86.944 460.541 L 86.932 460.539 C 86.074 460.37 85.453 459.653 85.435 458.811 L 84.422 438.026 C 84.413 437.806 84.379 437.588 84.32 437.375 L 84.322 437.369 C 84.266 437.166 84.188 436.968 84.088 436.78 C 83.993 436.596 83.878 436.423 83.745 436.263 C 83.597 436.082 83.429 435.919 83.243 435.775 L 68.993 424.52 L 68.993 424.52 Z " fill="rgb(204,204,204)"/><path d=" M 83.745 436.263 L 159.275 403.305 C 159.341 403.275 159.411 403.252 159.482 403.235 C 160.083 403.086 160.71 403.37 160.973 403.911 C 161.236 404.452 161.062 405.096 160.558 405.445 L 98.455 449.336 L 97.36 450.112 L 96.6 449.113 L 96.767 448.989 L 96.773 448.991 L 159.792 404.444 L 84.322 437.369 L 84.32 437.375 L 83.992 437.515 L 83.459 436.386 L 83.745 436.263 Z " fill="rgb(204,204,204)"/><path d=" M 519.46 455.387 L 429.887 436.796 L 428.723 436.555 C 427.513 436.303 426.26 436.739 425.498 437.678 C 424.737 438.617 424.601 439.892 425.15 440.96 L 460.714 510.448 C 461.181 511.354 462.077 511.985 463.116 512.14 C 464.158 512.296 465.214 511.948 465.937 511.209 L 490.639 486.149 C 490.994 485.78 491.494 485.57 492.017 485.57 C 492.734 485.561 493.398 485.932 493.743 486.536 L 498.803 495.54 C 499.468 496.776 500.921 497.417 502.328 497.095 L 502.353 497.089 C 503.777 496.799 504.809 495.608 504.851 494.209 L 505.865 473.423 C 505.877 473.164 505.944 472.91 506.062 472.676 C 506.189 472.446 506.362 472.241 506.57 472.073 L 520.821 460.818 C 521.777 460.063 522.2 458.849 521.91 457.692 C 521.62 456.535 520.668 455.64 519.46 455.387 L 519.46 455.387 Z  M 520.007 459.861 L 505.757 471.116 C 505.571 471.26 505.403 471.424 505.255 471.604 L 429.725 438.646 C 429.659 438.617 429.589 438.593 429.518 438.576 C 428.917 438.427 428.29 438.711 428.027 439.252 C 427.764 439.793 427.938 440.437 428.442 440.786 L 490.545 484.678 C 490.229 484.835 489.945 485.044 489.704 485.295 L 465.002 510.355 C 464.567 510.795 463.936 511.003 463.311 510.912 C 462.687 510.821 462.148 510.443 461.868 509.898 L 426.304 440.41 C 425.979 439.769 426.063 439.007 426.519 438.445 C 426.975 437.884 427.724 437.621 428.448 437.769 L 429.64 438.017 L 519.185 456.601 C 519.91 456.752 520.482 457.289 520.657 457.983 C 520.832 458.677 520.58 459.407 520.007 459.861 L 520.007 459.861 Z " fill="rgb(230,230,230)"/><path d=" M 519.46 455.387 L 429.887 436.796 L 428.723 436.555 C 427.513 436.303 426.26 436.739 425.498 437.678 C 424.737 438.617 424.601 439.892 425.15 440.96 L 460.714 510.448 C 461.181 511.354 462.077 511.985 463.116 512.14 C 464.158 512.296 465.214 511.948 465.937 511.209 L 490.639 486.149 C 490.994 485.78 491.494 485.57 492.017 485.57 C 492.734 485.561 493.398 485.932 493.743 486.536 L 498.803 495.54 C 499.468 496.776 500.921 497.417 502.328 497.095 L 502.353 497.089 C 503.777 496.799 504.809 495.608 504.851 494.209 L 505.865 473.423 C 505.877 473.164 505.944 472.91 506.062 472.676 C 506.189 472.446 506.362 472.241 506.57 472.073 L 520.821 460.818 C 521.777 460.063 522.2 458.849 521.91 457.692 C 521.62 456.535 520.668 455.64 519.46 455.387 L 519.46 455.387 Z  M 520.007 459.861 L 505.757 471.116 C 505.571 471.26 505.403 471.424 505.255 471.604 C 505.122 471.764 505.007 471.937 504.912 472.121 C 504.812 472.309 504.734 472.507 504.678 472.711 L 504.68 472.717 C 504.621 472.929 504.587 473.147 504.578 473.367 L 503.565 494.152 C 503.547 494.994 502.926 495.712 502.068 495.88 L 502.056 495.883 C 501.211 496.085 500.334 495.701 499.936 494.956 L 494.875 485.946 C 494.345 485.004 493.345 484.393 492.233 484.331 L 492.227 484.332 C 492.154 484.329 492.08 484.325 492.008 484.328 C 491.498 484.328 490.996 484.448 490.545 484.678 C 490.23 484.835 489.945 485.044 489.704 485.295 L 465.002 510.355 C 464.567 510.795 463.936 511.003 463.311 510.912 C 462.687 510.821 462.148 510.443 461.868 509.898 L 426.304 440.41 C 425.979 439.769 426.063 439.007 426.519 438.445 C 426.975 437.884 427.724 437.621 428.448 437.769 L 429.64 438.017 L 519.185 456.601 C 519.91 456.752 520.482 457.289 520.657 457.983 C 520.832 458.677 520.58 459.407 520.007 459.861 L 520.007 459.861 Z " fill="rgb(204,204,204)"/><path d=" M 505.541 471.727 L 505.008 472.856 L 504.68 472.717 L 504.678 472.711 L 429.208 439.785 L 492.227 484.332 L 492.233 484.331 L 492.4 484.454 L 491.64 485.454 L 490.545 484.678 L 428.442 440.786 C 427.938 440.437 427.764 439.793 428.027 439.252 C 428.291 438.711 428.917 438.427 429.518 438.576 C 429.589 438.593 429.659 438.617 429.725 438.646 L 505.255 471.604 L 505.541 471.727 Z " fill="rgb(204,204,204)"/><path d=" M 167.427 41.316 C 166.262 40.15 164.515 39.714 162.909 40.189 C 161.303 40.663 160.111 41.967 159.827 43.56 L 156.111 67.167 C 156.053 67.515 155.924 67.848 155.732 68.148 C 155.529 68.442 155.265 68.692 154.958 68.884 L 130.257 84.383 C 128.582 85.378 127.849 87.359 128.496 89.149 L 128.507 89.18 C 129.125 90.978 130.929 92.146 132.892 92.019 L 147.469 91.411 C 148.446 91.374 149.365 91.853 149.867 92.66 C 150.236 93.238 150.332 93.94 150.131 94.59 L 136.903 139.348 C 136.51 140.664 136.83 142.082 137.754 143.124 C 138.686 144.174 140.085 144.731 141.516 144.62 L 251.555 136.054 C 252.549 135.98 253.489 135.587 254.224 134.938 C 255.077 134.189 255.58 133.14 255.617 132.03 C 255.654 130.919 255.223 129.841 254.422 129.041 L 253.307 127.916 L 167.426 41.316 L 167.427 41.316 Z  M 161.571 43.802 C 161.661 43.242 161.947 42.729 162.381 42.346 C 163.458 41.399 165.123 41.45 166.136 42.461 L 251.989 129.034 L 253.132 130.186 C 253.534 130.593 253.781 131.118 253.833 131.677 C 253.888 132.346 253.664 133.009 253.21 133.519 C 252.756 134.028 252.11 134.343 251.415 134.393 L 141.375 142.959 C 141.065 142.983 140.753 142.954 140.453 142.876 C 139.781 142.707 139.207 142.286 138.86 141.707 C 138.514 141.128 138.423 140.439 138.608 139.795 L 151.835 95.038 C 151.972 94.597 152.026 94.136 151.997 93.677 L 249.447 132.279 C 250.116 132.552 250.89 132.409 251.407 131.918 C 251.737 131.606 251.92 131.179 251.917 130.734 C 251.914 130.289 251.724 129.865 251.391 129.557 C 251.32 129.489 251.242 129.428 251.159 129.375 L 157.612 68.303 C 157.728 68.014 157.81 67.714 157.855 67.408 L 161.571 43.802 L 161.571 43.802 Z " fill="rgb(230,230,230)"/><path d=" M 167.427 41.316 C 166.262 40.15 164.515 39.714 162.909 40.189 C 161.303 40.663 160.111 41.967 159.827 43.56 L 156.111 67.167 C 156.053 67.515 155.924 67.848 155.732 68.148 C 155.529 68.442 155.265 68.692 154.958 68.884 L 130.257 84.383 C 128.582 85.378 127.849 87.359 128.496 89.149 L 128.507 89.18 C 129.125 90.978 130.929 92.146 132.892 92.019 L 147.469 91.411 C 148.446 91.374 149.365 91.853 149.867 92.66 C 150.236 93.238 150.332 93.94 150.131 94.59 L 136.903 139.348 C 136.51 140.664 136.83 142.082 137.754 143.124 C 138.686 144.174 140.085 144.731 141.516 144.62 L 251.555 136.054 C 252.549 135.98 253.489 135.587 254.224 134.938 C 255.077 134.189 255.58 133.14 255.617 132.03 C 255.654 130.919 255.223 129.841 254.422 129.041 L 253.307 127.916 L 167.426 41.316 L 167.427 41.316 Z  M 161.571 43.802 C 161.661 43.242 161.947 42.729 162.381 42.346 C 163.458 41.399 165.123 41.45 166.136 42.461 L 251.989 129.034 L 253.132 130.186 C 253.534 130.593 253.781 131.118 253.833 131.677 C 253.888 132.346 253.664 133.009 253.21 133.519 C 252.756 134.028 252.11 134.343 251.415 134.393 L 141.375 142.959 C 141.065 142.983 140.753 142.954 140.453 142.876 C 139.781 142.707 139.207 142.286 138.861 141.707 C 138.514 141.128 138.423 140.439 138.608 139.795 L 151.835 95.038 C 151.972 94.597 152.026 94.136 151.997 93.677 C 151.959 93.016 151.752 92.375 151.393 91.81 C 151.345 91.728 151.289 91.649 151.233 91.57 L 151.231 91.562 C 150.359 90.365 148.911 89.68 147.393 89.746 L 132.808 90.358 C 131.626 90.437 130.542 89.73 130.181 88.645 L 130.175 88.629 C 129.778 87.556 130.22 86.362 131.233 85.772 L 155.934 70.273 C 156.196 70.112 156.439 69.924 156.657 69.711 L 156.666 69.708 C 156.875 69.506 157.061 69.282 157.221 69.041 C 157.379 68.809 157.51 68.562 157.612 68.303 C 157.728 68.014 157.81 67.714 157.855 67.408 L 161.571 43.802 L 161.571 43.802 Z " fill="rgb(204,204,204)"/><path d=" M 157.612 68.303 L 251.159 129.375 C 251.242 129.428 251.32 129.489 251.391 129.557 C 251.909 130.035 252.061 130.774 251.772 131.407 C 251.373 132.258 250.339 132.646 249.447 132.279 L 151.997 93.677 L 150.276 92.997 L 150.962 91.462 L 151.231 91.562 L 151.233 91.57 L 250.131 130.736 L 156.665 69.709 L 156.657 69.711 L 156.255 69.443 L 157.26 68.071 L 157.612 68.303 Z " fill="rgb(204,204,204)"/></g></g></g></svg>