<?xml version="1.0" encoding="UTF-8" standalone="no"?><!-- Generator: Gravit.io --><svg xmlns="http://www.w3.org/2000/svg" xmlns:xlink="http://www.w3.org/1999/xlink" style="isolation:isolate" viewBox="0 0 810.804 685.857" width="810.804pt" height="685.857pt"><defs><clipPath id="_clipPath_hGEZBYftoTco0pF42HiSZCmniOAKO9CL"><rect width="810.804" height="685.857"/></clipPath></defs><g clip-path="url(#_clipPath_hGEZBYftoTco0pF42HiSZCmniOAKO9CL)"><path d=" M 522.179 412.437 L 303.646 412.437 C 291.451 412.423 281.569 402.541 281.556 390.347 L 281.556 100.984 C 281.569 88.79 291.451 78.908 303.646 78.894 L 522.179 78.894 C 534.373 78.908 544.255 88.79 544.269 100.984 L 544.269 390.347 C 544.255 402.541 534.373 412.423 522.179 412.437 L 522.179 412.437 Z " fill="rgb(230,230,230)"/><path d=" M 506.818 394.026 L 319.007 394.026 C 308.18 394.014 299.405 385.239 299.393 374.412 L 299.393 116.919 C 299.405 106.091 308.18 97.317 319.007 97.305 L 506.818 97.305 C 517.645 97.317 526.419 106.091 526.432 116.919 L 526.432 374.412 C 526.419 385.239 517.645 394.014 506.818 394.026 L 506.818 394.026 Z " fill="rgb(255,255,255)"/><path d=" M 488.082 146.239 L 337.742 146.239 C 335.989 146.241 334.368 145.307 333.49 143.789 C 332.613 142.271 332.613 140.4 333.49 138.882 C 334.368 137.364 335.989 136.43 337.742 136.433 L 488.082 136.433 C 489.836 136.43 491.457 137.364 492.334 138.882 C 493.212 140.4 493.212 142.271 492.334 143.789 C 491.457 145.307 489.836 146.241 488.082 146.239 L 488.082 146.239 Z " fill="rgb(228,228,228)"/><path d=" M 488.082 165.613 L 337.742 165.613 C 335.034 165.613 332.839 163.418 332.839 160.71 C 332.839 158.002 335.034 155.807 337.742 155.807 L 488.082 155.807 C 490.79 155.807 492.986 158.002 492.986 160.71 C 492.986 163.418 490.79 165.613 488.082 165.613 Z " fill="rgb(228,228,228)"/><path d=" M 402.911 184.988 L 337.742 184.988 C 335.034 184.988 332.839 182.793 332.839 180.085 C 332.839 177.377 335.034 175.181 337.742 175.181 L 402.911 175.181 C 405.619 175.181 407.814 177.377 407.814 180.085 C 407.814 182.793 405.619 184.988 402.911 184.988 Z " fill="rgb(228,228,228)"/><path d=" M 488.082 225.565 L 337.742 225.565 C 335.989 225.568 334.368 224.634 333.49 223.116 C 332.613 221.598 332.613 219.727 333.49 218.209 C 334.368 216.691 335.989 215.757 337.742 215.759 L 488.082 215.759 C 489.836 215.757 491.457 216.691 492.334 218.209 C 493.212 219.727 493.212 221.598 492.334 223.116 C 491.457 224.634 489.836 225.568 488.082 225.565 L 488.082 225.565 Z " fill="rgb(228,228,228)"/><path d=" M 488.082 244.94 L 337.742 244.94 C 335.034 244.94 332.839 242.745 332.839 240.037 C 332.839 237.328 335.034 235.133 337.742 235.133 L 488.082 235.133 C 490.79 235.133 492.986 237.328 492.986 240.037 C 492.986 242.745 490.79 244.94 488.082 244.94 Z " fill="rgb(228,228,228)"/><path d=" M 402.911 264.314 L 337.742 264.314 C 335.037 264.31 332.846 262.116 332.846 259.411 C 332.846 256.706 335.037 254.512 337.742 254.508 L 402.911 254.508 C 405.619 254.508 407.814 256.703 407.814 259.411 C 407.814 262.119 405.619 264.314 402.911 264.314 L 402.911 264.314 Z " fill="rgb(228,228,228)"/><path d=" M 488.082 304.892 L 337.742 304.892 C 335.989 304.894 334.368 303.96 333.49 302.442 C 332.613 300.924 332.613 299.053 333.49 297.535 C 334.368 296.017 335.989 295.083 337.742 295.086 L 488.082 295.086 C 489.836 295.083 491.457 296.017 492.334 297.535 C 493.212 299.053 493.212 300.924 492.334 302.442 C 491.457 303.96 489.836 304.894 488.082 304.892 L 488.082 304.892 Z " fill="rgb(228,228,228)"/><path d=" M 488.082 324.266 L 337.742 324.266 C 335.034 324.266 332.839 322.071 332.839 319.363 C 332.839 316.655 335.034 314.46 337.742 314.46 L 488.082 314.46 C 490.79 314.46 492.986 316.655 492.986 319.363 C 492.986 322.071 490.79 324.266 488.082 324.266 Z " fill="rgb(228,228,228)"/><path d=" M 402.911 343.641 L 337.742 343.641 C 335.034 343.641 332.839 341.446 332.839 338.737 C 332.839 336.029 335.034 333.834 337.742 333.834 L 402.911 333.834 C 405.619 333.834 407.814 336.029 407.814 338.737 C 407.814 341.446 405.619 343.641 402.911 343.641 Z " fill="rgb(228,228,228)"/><path d=" M 369.608 244.215 L 206.272 104.506 L 96.539 104.506 L 96.539 102.448 L 207.032 102.448 L 370.946 242.651 L 369.608 244.215 L 369.608 244.215 Z " fill="rgb(47,46,65)"/><circle vector-effect="non-scaling-stroke" cx="96.53869" cy="103.47712" r="16.465450000000004" fill="rgb(0,0,0)"/><path d=" M 155.243 158.86 L 4.903 158.86 C 3.152 158.86 1.533 157.926 0.657 156.409 C -0.219 154.892 -0.219 153.023 0.657 151.506 C 1.533 149.989 3.152 149.054 4.903 149.054 L 155.243 149.054 C 156.995 149.054 158.614 149.989 159.489 151.506 C 160.365 153.023 160.365 154.892 159.489 156.409 C 158.614 157.926 156.995 158.86 155.243 158.86 L 155.243 158.86 Z " fill="rgb(0,0,0)"/><path d=" M 155.243 178.235 L 4.903 178.235 C 2.195 178.235 0 176.039 0 173.331 C 0 170.623 2.195 168.428 4.903 168.428 L 155.243 168.428 C 157.951 168.428 160.146 170.623 160.146 173.331 C 160.146 176.039 157.951 178.235 155.243 178.235 Z " fill="rgb(0,0,0)"/><path d=" M 70.072 197.609 L 4.903 197.609 C 2.195 197.609 0 195.414 0 192.706 C 0 189.998 2.195 187.803 4.903 187.803 L 70.072 187.803 C 72.78 187.803 74.975 189.998 74.975 192.706 C 74.975 195.414 72.78 197.609 70.072 197.609 Z " fill="rgb(0,0,0)"/><path d=" M 412.912 155.639 L 576.826 15.436 L 687.319 15.436 L 687.319 17.494 L 577.586 17.494 L 414.25 157.203 L 412.912 155.639 L 412.912 155.639 Z " fill="rgb(47,46,65)"/><circle vector-effect="non-scaling-stroke" cx="687.31936" cy="16.46545" r="16.465450000000033" fill="rgb(0,0,0)"/><path d=" M 799.275 71.271 L 648.935 71.271 C 647.182 71.274 645.56 70.34 644.683 68.822 C 643.806 67.304 643.806 65.433 644.683 63.915 C 645.56 62.397 647.182 61.463 648.935 61.465 L 799.275 61.465 C 801.028 61.463 802.65 62.397 803.527 63.915 C 804.404 65.433 804.404 67.304 803.527 68.822 C 802.65 70.34 801.028 71.274 799.275 71.271 L 799.275 71.271 Z " fill="rgb(0,0,0)"/><path d=" M 799.275 90.646 L 648.935 90.646 C 646.227 90.646 644.032 88.45 644.032 85.742 C 644.032 83.034 646.227 80.839 648.935 80.839 L 799.275 80.839 C 801.027 80.839 802.645 81.774 803.521 83.291 C 804.397 84.808 804.397 86.677 803.521 88.194 C 802.645 89.711 801.027 90.646 799.275 90.646 L 799.275 90.646 Z " fill="rgb(0,0,0)"/><path d=" M 714.104 110.02 L 648.935 110.02 C 646.227 110.02 644.032 107.825 644.032 105.117 C 644.032 102.409 646.227 100.214 648.935 100.214 L 714.104 100.214 C 715.856 100.214 717.474 101.148 718.35 102.665 C 719.226 104.182 719.226 106.051 718.35 107.569 C 717.474 109.086 715.856 110.02 714.104 110.02 L 714.104 110.02 Z " fill="rgb(0,0,0)"/></g></svg>