<?xml version="1.0" encoding="UTF-8" standalone="no"?><!-- Generator: Gravit.io --><svg xmlns="http://www.w3.org/2000/svg" xmlns:xlink="http://www.w3.org/1999/xlink" style="isolation:isolate" viewBox="0 0 793.705 564.236" width="793.705pt" height="564.236pt"><defs><clipPath id="_clipPath_pIoUISENyP8l3t49QbyeNT4xJVsDqFwO"><rect width="793.705" height="564.236"/></clipPath></defs><g clip-path="url(#_clipPath_pIoUISENyP8l3t49QbyeNT4xJVsDqFwO)"><rect x="113.067" y="139.743" width="567.571" height="284.751" transform="matrix(1,0,0,1,0,0)" fill="rgb(230,230,230)"/><rect x="139.128" y="162.909" width="515.448" height="238.419" transform="matrix(1,0,0,1,0,0)" fill="rgb(255,255,255)"/><path d=" M 149.223 182.256 L 147.858 183.621 L 217.074 252.836 L 238.792 231.118 L 276.919 269.246 L 323.734 222.431 L 403.368 302.065 L 439.565 265.867 L 518.716 345.019 L 563.118 300.617 L 644.483 381.981 L 645.848 380.616 L 563.118 297.887 L 518.716 342.289 L 439.565 263.138 L 403.368 299.335 L 323.734 219.701 L 276.919 266.516 L 238.792 228.388 L 217.074 250.107 L 149.223 182.256 L 149.223 182.256 Z " fill="rgb(0,0,0)"/><circle vector-effect="non-scaling-stroke" cx="327.1124" cy="222.51355999999998" r="11.583090000000027" fill="rgb(0,0,0)"/><circle vector-effect="non-scaling-stroke" cx="401.43723" cy="298.7689" r="11.583090000000027" fill="rgb(0,0,0)"/><circle vector-effect="non-scaling-stroke" cx="562.63525" cy="298.7689" r="11.58308999999997" fill="rgb(0,0,0)"/></g></svg>