<?xml version="1.0" encoding="UTF-8" standalone="no"?><!-- Generator: Gravit.io --><svg xmlns="http://www.w3.org/2000/svg" xmlns:xlink="http://www.w3.org/1999/xlink" style="isolation:isolate" viewBox="0 0 634.387 584.35" width="634.387pt" height="584.35pt"><defs><clipPath id="_clipPath_ir4NJwwzRSnx0c9C9RASFxbrfn5TzNrU"><rect width="634.387" height="584.35"/></clipPath></defs><g clip-path="url(#_clipPath_ir4NJwwzRSnx0c9C9RASFxbrfn5TzNrU)"><path d=" M 291.294 321.502 C 291.181 321.502 291.11 321.5 291.085 321.498 L 277.52 321.5 L 277.52 319.5 L 291.134 319.5 C 291.449 319.511 297.88 319.692 303.805 312.503 C 312.634 301.788 319.885 275.263 304.286 209.747 C 283.311 121.651 300.805 43.824 309.3 14.452 C 310.149 11.506 309.562 8.332 307.717 5.883 C 305.872 3.435 302.983 1.996 299.917 2 L 97.342 2 C 94.218 2.004 91.283 3.498 89.442 6.021 C 85.843 10.971 80.905 20.481 77.814 37.676 L 75.846 37.323 C 79.003 19.754 84.103 9.964 87.824 4.845 C 90.042 1.805 93.578 0.005 97.341 0 L 299.917 0 C 303.612 -0.004 307.093 1.73 309.316 4.682 C 311.539 7.633 312.245 11.457 311.221 15.007 C 302.77 44.227 285.367 121.651 306.232 209.284 C 322.05 275.722 314.446 302.821 305.281 313.856 C 299.236 321.134 292.576 321.502 291.294 321.502 Z " fill="rgb(230,230,230)"/><path d=" M 254.794 358.002 C 254.681 358.002 254.61 358 254.585 357.998 L 241.02 358 L 241.02 356 L 254.634 356 C 254.951 356.009 261.38 356.192 267.305 349.003 C 276.134 338.288 283.385 311.763 267.786 246.247 C 246.811 158.151 264.305 80.324 272.8 50.952 C 273.649 48.006 273.062 44.832 271.217 42.383 C 269.372 39.935 266.483 38.496 263.417 38.5 L 60.842 38.5 C 57.718 38.504 54.783 39.998 52.942 42.521 C 49.343 47.471 44.405 56.981 41.315 74.176 L 39.346 73.823 C 42.503 56.254 47.603 46.464 51.324 41.345 C 53.542 38.305 57.078 36.505 60.842 36.5 L 263.417 36.5 C 267.112 36.496 270.593 38.23 272.816 41.182 C 275.039 44.133 275.745 47.957 274.721 51.507 C 266.27 80.727 248.867 158.151 269.732 245.784 C 285.55 312.222 277.946 339.321 268.781 350.356 C 262.736 357.634 256.076 358.002 254.794 358.002 Z " fill="rgb(204,204,204)"/><path d=" M 218.294 394.502 C 218.181 394.502 218.11 394.5 218.085 394.498 L 18.632 394.5 C 14.732 394.504 11.085 392.574 8.895 389.348 C 6.706 386.122 6.259 382.019 7.703 378.397 C 14.94 360.317 24.684 316.938 8.635 229.558 C -10.317 126.378 6.65 89.088 14.824 77.845 C 17.042 74.805 20.578 73.005 24.342 73 L 226.917 73 C 230.612 72.996 234.093 74.73 236.316 77.682 C 238.539 80.633 239.245 84.457 238.221 88.007 C 229.77 117.227 212.367 194.651 233.232 282.284 C 249.05 348.722 241.446 375.821 232.281 386.856 C 226.236 394.134 219.576 394.502 218.294 394.502 Z  M 24.342 75 C 21.218 75.004 18.283 76.498 16.442 79.021 C 8.419 90.056 -8.21 126.778 10.602 229.197 C 25.934 312.67 18.498 356.811 9.56 379.141 C 8.336 382.134 8.703 385.542 10.537 388.205 C 12.354 390.893 15.387 392.502 18.632 392.5 L 218.134 392.5 C 218.449 392.515 224.88 392.693 230.805 385.503 C 239.634 374.788 246.885 348.263 231.286 282.747 C 210.311 194.651 227.805 116.824 236.3 87.452 C 237.149 84.506 236.562 81.332 234.717 78.883 C 232.872 76.435 229.983 74.996 226.917 75 L 24.342 75 Z " fill="rgb(63,61,86)"/><path d=" M 192.461 163 L 33.461 163 C 29.043 163 25.461 159.418 25.461 155 C 25.461 150.582 29.043 147 33.461 147 L 192.461 147 C 196.879 147 200.461 150.582 200.461 155 C 200.461 159.418 196.879 163 192.461 163 Z " fill="rgb(0,0,0)"/><path d=" M 192.461 197 L 33.461 197 C 29.043 197 25.461 193.418 25.461 189 C 25.461 184.582 29.043 181 33.461 181 L 192.461 181 C 196.879 181 200.461 184.582 200.461 189 C 200.461 193.418 196.879 197 192.461 197 Z " fill="rgb(204,204,204)"/><path d=" M 192.461 231 L 33.461 231 C 29.043 231 25.461 227.418 25.461 223 C 25.461 218.582 29.043 215 33.461 215 L 192.461 215 C 196.879 215 200.461 218.582 200.461 223 C 200.461 227.418 196.879 231 192.461 231 Z " fill="rgb(204,204,204)"/><path d=" M 204.461 265 L 45.461 265 C 41.043 265 37.461 261.418 37.461 257 C 37.461 252.582 41.043 249 45.461 249 L 204.461 249 C 208.879 249 212.461 252.582 212.461 257 C 212.461 261.418 208.879 265 204.461 265 Z " fill="rgb(204,204,204)"/><path d=" M 204.461 299 L 45.461 299 C 41.043 299 37.461 295.418 37.461 291 C 37.461 286.582 41.043 283 45.461 283 L 204.461 283 C 208.879 283 212.461 286.582 212.461 291 C 212.461 295.418 208.879 299 204.461 299 Z " fill="rgb(204,204,204)"/><path d=" M 108.461 129 L 33.461 129 C 29.043 129 25.461 125.418 25.461 121 C 25.461 116.582 29.043 113 33.461 113 L 108.461 113 C 112.879 113 116.461 116.582 116.461 121 C 116.461 125.418 112.879 129 108.461 129 Z " fill="rgb(0,0,0)"/><path d=" M 98.777 353.822 C 100.391 346.987 107.975 344.746 114.175 344.997 C 118.092 345.261 121.978 345.876 125.786 346.834 C 129.77 347.725 133.715 348.781 137.641 349.9 C 144.839 351.953 151.964 354.436 159.281 356.041 C 165.372 357.377 171.992 358.161 178.066 356.316 C 183.906 354.543 188.86 350.19 190.449 344.171 C 191.946 338.5 189.89 332.299 184.394 329.707 C 179.383 327.343 173.052 328.545 170.568 333.89 C 167.767 339.917 170.566 346.49 175 350.851 C 177.521 353.218 180.282 355.315 183.238 357.108 C 186.239 359.153 189.578 360.648 193.102 361.526 C 198.887 362.761 205.778 360.941 208.761 355.414 C 209.425 354.163 209.824 352.789 209.933 351.377 C 210.11 349.455 207.109 349.467 206.933 351.377 C 206.428 356.88 199.983 359.458 195.163 358.854 C 191.91 358.315 188.803 357.109 186.038 355.312 C 183.369 353.756 180.84 351.972 178.479 349.979 C 174.392 346.442 170.56 340.62 173.305 335.1 C 175.541 330.605 181.368 330.65 184.913 333.549 C 189.205 337.059 188.44 343.431 185.609 347.6 C 182.474 352.217 176.792 354.152 171.435 354.361 C 165.614 354.587 159.841 353.252 154.278 351.672 C 147.366 349.709 140.522 347.512 133.576 345.664 C 129.633 344.615 125.659 343.668 121.645 342.931 C 117.849 342.095 113.95 341.825 110.075 342.13 C 103.815 342.853 97.425 346.497 95.884 353.024 C 95.44 354.902 98.332 355.703 98.777 353.822 L 98.777 353.822 Z " fill="rgb(63,61,86)"/><path d=" M 209.005 354.533 C 208.229 353.887 207.918 352.838 208.216 351.874 C 208.514 350.909 209.362 350.219 210.367 350.123 C 215.821 349.596 221.326 350.16 226.56 351.783 L 279.875 368.248 C 282.777 369.145 284.403 372.224 283.507 375.126 C 282.611 378.029 279.531 379.655 276.629 378.758 L 223.314 362.293 C 218.076 360.681 213.212 358.043 209.005 354.533 L 209.005 354.533 Z " fill="rgb(63,61,86)"/></g></svg>