<?xml version="1.0" encoding="UTF-8" standalone="no"?><!-- Generator: Gravit.io --><svg xmlns="http://www.w3.org/2000/svg" xmlns:xlink="http://www.w3.org/1999/xlink" style="isolation:isolate" viewBox="0 0 550 450" width="550pt" height="450pt"><defs><clipPath id="_clipPath_AYvm7nica1kO7DW9ATrIP91iO0PvCLUT"><rect width="550" height="450"/></clipPath></defs><g clip-path="url(#_clipPath_AYvm7nica1kO7DW9ATrIP91iO0PvCLUT)"><path d=" M 320.534 304.081 L 308.354 304.081 L 308.354 287.901 L 320.534 287.901 L 320.534 304.081 L 320.534 304.081 Z  M 309.354 303.081 L 319.534 303.081 L 319.534 288.901 L 309.354 288.901 L 309.354 303.081 L 309.354 303.081 Z " fill="rgb(63,61,86)"/><path d=" M 358.874 304.081 L 346.694 304.081 L 346.694 287.901 L 358.874 287.901 L 358.874 304.081 L 358.874 304.081 Z  M 347.694 303.081 L 357.874 303.081 L 357.874 288.901 L 347.694 288.901 L 347.694 303.081 L 347.694 303.081 Z " fill="rgb(63,61,86)"/><path d=" M 333.614 82.822 C 313.08 82.822 296.374 66.116 296.374 45.582 C 296.374 25.048 313.08 8.342 333.614 8.342 C 354.148 8.342 370.854 25.048 370.854 45.582 C 370.854 66.116 354.148 82.822 333.614 82.822 Z  M 333.614 9.342 C 313.631 9.342 297.374 25.599 297.374 45.582 C 297.374 65.565 313.631 81.822 333.614 81.822 C 353.597 81.822 369.854 65.564 369.854 45.582 C 369.854 25.6 353.597 9.342 333.614 9.342 Z " fill="rgb(63,61,86)"/><path d=" M 360.181 23.036 C 358.008 24.228 355.615 24.964 353.148 25.2 C 342.964 26.592 332.594 25.428 322.972 21.813 C 321.392 25.806 317.562 28.554 313.461 29.852 C 309.36 31.15 305.011 31.215 300.715 31.28 C 299.771 31.386 298.817 31.205 297.978 30.761 C 296.063 29.473 296.993 26.509 298.108 24.496 L 303.648 14.455 C 305.282 11.49 306.97 8.461 309.501 6.221 C 312.682 3.408 316.901 2.088 321.056 1.255 C 330.889 -0.703 341.042 -0.366 350.724 2.24 C 361.079 4.956 374.377 14.455 360.181 23.036 L 360.181 23.036 Z " fill="rgb(47,46,65)"/><ellipse vector-effect="non-scaling-stroke" cx="355.98404" cy="45.58187" rx="3.2000100000000202" ry="5.990000000000002" fill="rgb(63,61,86)"/><ellipse vector-effect="non-scaling-stroke" cx="340.952" cy="45.58187" rx="3.2000100000000202" ry="5.990000000000002" fill="rgb(63,61,86)"/><path d=" M 293.296 175.336 L 287.601 154.342 C 284.014 127.483 287.728 108.492 298.626 97.83 C 309.853 86.847 324.901 89.044 325.051 89.067 L 325.699 89.168 L 325.43 89.766 C 325.301 90.053 312.441 118.679 306.139 134.427 C 299.908 149.993 310.03 173.744 310.133 173.982 L 310.422 174.651 L 293.296 175.336 L 293.296 175.336 L 293.296 175.336 Z  M 321.633 89.87 C 316.689 89.87 307.059 90.972 299.315 98.555 C 288.663 108.986 285.051 127.69 288.58 154.145 L 294.052 174.305 L 308.936 173.71 C 307.276 169.638 299.345 148.708 305.21 134.055 C 311.001 119.586 322.314 94.273 324.238 89.981 C 323.678 89.929 322.781 89.87 321.633 89.87 L 321.633 89.87 Z " fill="rgb(63,61,86)"/><path d=" M 373.933 175.336 L 356.806 174.651 L 357.095 173.982 C 357.198 173.744 367.318 149.987 361.09 134.427 C 354.787 118.679 341.927 90.053 341.798 89.766 L 341.529 89.168 L 342.177 89.067 C 342.329 89.044 357.376 86.847 368.601 97.83 C 379.5 108.492 383.214 127.483 379.64 154.277 L 373.933 175.336 L 373.933 175.336 L 373.933 175.336 Z  M 358.292 173.71 L 373.176 174.305 L 378.662 154.08 C 382.177 127.69 378.565 108.986 367.913 98.555 C 358.372 89.211 345.963 89.705 342.99 89.981 C 344.914 94.273 356.227 119.586 362.018 134.055 C 367.883 148.708 359.952 169.638 358.292 173.71 L 358.292 173.71 Z " fill="rgb(63,61,86)"/><circle vector-effect="non-scaling-stroke" cx="302.46399" cy="177.37086" r="8.79000000000002" fill="rgb(47,46,65)"/><circle vector-effect="non-scaling-stroke" cx="365.36401" cy="177.37086" r="8.79000000000002" fill="rgb(47,46,65)"/><path d=" M 326.094 310.431 L 301.964 310.431 L 301.964 307.191 C 301.964 301.401 306.674 296.691 312.464 296.691 L 315.594 296.691 C 321.384 296.691 326.094 301.401 326.094 307.191 L 326.094 310.431 L 326.094 310.431 Z " fill="rgb(47,46,65)"/><path d=" M 365.234 310.431 L 341.104 310.431 L 341.104 307.191 C 341.104 301.401 345.814 296.691 351.604 296.691 L 354.734 296.691 C 360.523 296.691 365.234 301.401 365.234 307.191 L 365.234 310.431 Z " fill="rgb(47,46,65)"/><path d=" M 253.88 345.424 L 413.348 345.424 C 413.495 345.424 413.614 344.866 413.614 344.177 C 413.614 343.488 413.495 342.93 413.348 342.93 L 253.88 342.93 C 253.733 342.93 253.614 343.488 253.614 344.177 C 253.614 344.866 253.733 345.424 253.88 345.424 Z " fill="rgb(63,61,86)"/></g></svg>