<?xml version="1.0" encoding="UTF-8" standalone="no"?><!-- Generator: Gravit.io --><svg xmlns="http://www.w3.org/2000/svg" xmlns:xlink="http://www.w3.org/1999/xlink" style="isolation:isolate" viewBox="0 0 722.73 493.998" width="722.73pt" height="493.998pt"><defs><clipPath id="_clipPath_fmOxtzI0lNFGXqZxS4k1oQL2zsJIErLJ"><rect width="722.73" height="493.998"/></clipPath></defs><g clip-path="url(#_clipPath_fmOxtzI0lNFGXqZxS4k1oQL2zsJIErLJ)"><clipPath id="_clipPath_Uf06vYvxD7Sdx5XNtvpWzksSTInXJ6pf"><rect x="0" y="0" width="722.73" height="493.998" transform="matrix(1,0,0,1,0,0)" fill="rgb(255,255,255)"/></clipPath><g clip-path="url(#_clipPath_Uf06vYvxD7Sdx5XNtvpWzksSTInXJ6pf)"><g><clipPath id="_clipPath_7n0C6y5XBLf4FkEk7uKtg2LtVnIoOMuj"><rect x="22" y="5" width="722.73" height="493.998" transform="matrix(1,0,0,1,0,0)" fill="rgb(255,255,255)"/></clipPath><g clip-path="url(#_clipPath_7n0C6y5XBLf4FkEk7uKtg2LtVnIoOMuj)"><g><g><ellipse vector-effect="non-scaling-stroke" cx="385.88923999999975" cy="246.87399249999984" rx="190.11075999999997" ry="179.3739924999999" fill="rgb(0,0,0)"/><g style="opacity:0.2;"><g style="opacity:0.2;"><g opacity="0.2"><path d=" M 376.897 310.36 C 358.76 327.471 329.357 327.471 311.221 310.36 L 311.221 310.36 C 295.803 295.806 293.191 273.091 304.946 255.757 L 294.728 265.592 C 276.592 282.703 276.592 310.447 294.728 327.558 L 294.728 327.558 C 312.864 344.67 342.268 344.67 360.404 327.558 L 383.046 305.377 L 383.389 303.998 L 376.897 310.36 Z " fill="rgb(0,0,0)"/></g></g></g><g style="opacity:0.2;"><g style="opacity:0.2;"><g opacity="0.2"><path d=" M 398.465 173.322 C 419.662 159.7 448.551 164.871 462.99 184.871 L 462.99 184.871 C 475.263 201.881 473.342 224.657 458.369 239.621 L 470.35 231.754 C 491.547 218.132 497.028 190.875 482.59 170.873 L 482.59 170.873 C 468.153 150.873 439.264 145.702 418.066 159.324 L 391.439 177.135 L 390.828 178.43 L 398.465 173.322 Z " fill="rgb(0,0,0)"/></g></g></g><path d=" M 327.566 345.874 C 307.136 345.874 288.716 334.262 280.898 316.452 C 273.079 298.643 277.401 278.143 291.848 264.512 L 334.716 223.247 C 344.186 214.296 357.039 209.264 370.441 209.259 C 383.846 209.254 396.703 214.277 406.181 223.22 C 407.771 224.72 407.771 227.153 406.181 228.655 C 404.589 230.155 402.011 230.155 400.421 228.655 C 383.875 213.044 357.051 213.044 340.506 228.655 C 334.209 249.598 320.605 263.968 297.637 269.92 C 286.916 280.011 282.719 294.734 286.628 308.538 C 290.537 322.342 301.958 333.127 316.584 336.829 C 331.211 340.53 346.819 336.584 357.523 326.479 C 356.596 317.887 359.256 309.81 380.111 304.348 C 381.12 303.355 382.614 302.946 384.03 303.276 C 385.445 303.606 386.567 304.625 386.969 305.947 C 387.371 307.269 386.993 308.693 385.979 309.681 L 363.338 331.863 C 353.879 340.858 340.996 345.904 327.566 345.874 L 327.566 345.874 Z " fill="rgb(255,255,255)"/><path d=" M 397.163 287.497 C 383.757 287.532 370.896 282.504 361.444 273.537 C 359.854 272.035 359.854 269.602 361.444 268.1 C 363.035 266.6 365.615 266.6 367.205 268.102 C 375.151 275.598 385.926 279.81 397.163 279.81 C 408.398 279.81 419.175 275.598 427.119 268.102 C 432.549 237.243 454.684 232.888 473.923 223.942 C 490.468 208.332 490.468 183.022 473.923 167.411 C 457.378 151.801 430.553 151.801 414.008 167.411 C 408.655 181.98 403.401 196.721 387.46 192.46 C 385.869 193.96 383.29 193.96 381.7 192.46 C 380.109 190.958 380.109 188.525 381.7 187.025 L 408.246 161.976 C 421.008 149.935 439.606 145.233 457.038 149.641 C 474.47 154.047 488.086 166.894 492.757 183.341 C 497.427 199.788 492.444 217.338 479.683 229.377 L 432.881 273.538 C 423.428 282.505 410.567 287.532 397.163 287.497 L 397.163 287.497 Z " fill="rgb(255,255,255)"/><ellipse vector-effect="non-scaling-stroke" cx="319.8354872867797" cy="247.52975819172394" rx="4.073802000000001" ry="3.8437284107142773" fill="rgb(0,0,0)"/><ellipse vector-effect="non-scaling-stroke" cx="448.83921728677996" cy="244.9672725845809" rx="4.073802000000001" ry="3.8437284107142773" fill="rgb(0,0,0)"/></g></g></g></g></g></g></svg>